<?xml version="1.0" encoding="iso-8859-1"?>
<!-- Generator: Adobe Illustrator 19.0.0, SVG Export Plug-In . SVG Version: 6.00 Build 0)  -->
<svg version="1.1" id="Layer_1" xmlns="http://www.w3.org/2000/svg" xmlns:xlink="http://www.w3.org/1999/xlink" x="0px" y="0px"
	 viewBox="0 0 400 400" style="enable-background:new 0 0 400 400;" xml:space="preserve">
<g>
	<rect x="193.57" y="111.681" style="fill:#E6E6E6;" width="143.236" height="288.319"/>
	<rect x="182.162" y="36.002" style="fill:#2D4151;" width="166.052" height="47.024"/>
	<g>
		<rect x="223.675" y="38.942" style="fill:#E6E6E6;" width="5.878" height="46.289"/>
		<rect x="300.823" y="38.942" style="fill:#E6E6E6;" width="5.878" height="46.289"/>
	</g>
	<g>
		<rect x="288.976" y="155.761" style="fill:#FFFFFF;" width="17" height="77.727"/>
		<g>
			<rect x="288.976" y="155.761" style="fill:#F93030;" width="17" height="8"/>
			<rect x="288.976" y="194.428" style="fill:#F93030;" width="17" height="8"/>
			<rect x="288.976" y="213.761" style="fill:#F93030;" width="17" height="8"/>
			<rect x="288.976" y="175.094" style="fill:#F93030;" width="17" height="8"/>
		</g>
	</g>
	<g>
		<rect x="261.976" y="173.761" style="fill:#FFFFFF;" width="17" height="77.727"/>
		<g>
			<rect x="261.976" y="173.761" style="fill:#F93030;" width="17" height="8"/>
			<rect x="261.976" y="212.428" style="fill:#F93030;" width="17" height="8"/>
			<rect x="261.976" y="231.761" style="fill:#F93030;" width="17" height="8"/>
			<rect x="261.976" y="193.094" style="fill:#F93030;" width="17" height="8"/>
		</g>
	</g>
	<rect x="79.724" y="259.141" style="fill:#E6E6E6;" width="273.24" height="140.859"/>
	<rect x="79.724" y="259.141" style="fill:#B3B3B3;" width="273.24" height="13.633"/>
	<rect x="79.722" y="280.218" style="fill:#B3B3B3;" width="53.813" height="55.043"/>
	<rect x="79.722" y="285.217" style="fill:#2D4151;" width="48.813" height="45.044"/>
	<rect x="132.352" y="280.218" style="fill:#B3B3B3;" width="57.401" height="55.043"/>
	<rect x="137.352" y="285.217" style="fill:#2D4151;" width="47.402" height="45.044"/>
	<rect x="188.571" y="280.218" style="fill:#B3B3B3;" width="57.402" height="55.043"/>
	<rect x="193.571" y="285.217" style="fill:#2D4151;" width="47.402" height="45.044"/>
	<rect x="244.79" y="280.218" style="fill:#B3B3B3;" width="58.813" height="55.043"/>
	<rect x="249.79" y="285.217" style="fill:#2D4151;" width="48.813" height="45.044"/>
	<polygon style="fill:#3496F7;" points="352.964,263.55 55.976,263.55 40.05,230.488 352.964,230.488 	"/>
	<polygon style="fill:#E6E6E6;" points="359.95,73.475 170.426,73.475 182.893,117.559 347.482,117.559 	"/>
	<polygon style="fill:#3496F7;" points="170.426,44.085 359.95,44.085 347.482,0 182.893,0 	"/>
	<rect x="193.57" y="117.559" style="fill:#B3B3B3;" width="143.236" height="12.491"/>
	<path style="opacity:0.2;fill:#FCFAFA;enable-background:new    ;" d="M251.877,71.768h45.408V45.792
		C297.286,45.792,289.994,68.586,251.877,71.768z"/>
	<path style="opacity:0.2;fill:#FCFAFA;enable-background:new    ;" d="M310.53,71.768h34.755V45.792
		C345.286,45.792,339.704,68.586,310.53,71.768z"/>
	<path style="opacity:0.2;fill:#FCFAFA;enable-background:new    ;" d="M253.821,327.565h42.255v-38.082
		C296.076,289.484,289.291,322.9,253.821,327.565z"/>
	<path style="opacity:0.2;fill:#FCFAFA;enable-background:new    ;" d="M196.144,327.565h42.255v-38.082
		C238.399,289.484,231.614,322.9,196.144,327.565z"/>
	<path style="opacity:0.2;fill:#FCFAFA;enable-background:new    ;" d="M137.644,327.565h42.255v-38.082
		C179.899,289.484,173.114,322.9,137.644,327.565z"/>
	<path style="opacity:0.2;fill:#FCFAFA;enable-background:new    ;" d="M82.269,327.565h42.255v-38.082
		C124.525,289.484,117.739,322.9,82.269,327.565z"/>
	<path style="opacity:0.2;fill:#FCFAFA;enable-background:new    ;" d="M186.03,71.768h34.755V45.792
		C220.786,45.792,215.204,68.586,186.03,71.768z"/>
	<g>
		<polygon style="fill:#E6E6E6;" points="131.593,144.261 126.976,230.488 137.976,230.488 133.359,144.261 		"/>
		<circle style="fill:#F93030;" cx="132.476" cy="142.761" r="6.5"/>
	</g>
	<g>
		<path style="fill:#FFFFFF;" d="M272.081,254.384h-5.997l-0.715,3.511h-2.361l4.661-21.752h2.828l4.661,21.752h-2.362
			L272.081,254.384z M266.549,252.053h5.034l-2.517-12.274L266.549,252.053z"/>
		<path style="fill:#FFFFFF;" d="M279.725,257.895h-2.331v-21.752h2.331V257.895z"/>
		<path style="fill:#FFFFFF;" d="M293.243,245.683c0,0.726-0.208,1.357-0.622,1.896s-0.953,0.901-1.615,1.088l2.206,9.229h-2.486
			l-1.988-9.105h-3.263v9.105h-2.331v-21.752h6.992c0.435,0,0.839,0.083,1.212,0.249c0.372,0.166,0.699,0.388,0.979,0.668
			s0.502,0.606,0.668,0.979s0.249,0.777,0.249,1.212v6.431H293.243z M290.912,239.25c0-0.518-0.259-0.777-0.776-0.777h-4.661v7.986
			h4.661c0.518,0,0.776-0.259,0.776-0.777V239.25z"/>
		<path style="fill:#FFFFFF;" d="M306.759,246.459c0,0.435-0.083,0.839-0.249,1.212s-0.389,0.699-0.668,0.979
			s-0.606,0.502-0.979,0.668c-0.373,0.166-0.777,0.249-1.212,0.249h-4.661v8.328h-2.331v-21.752h6.992c0.87,0,1.604,0.3,2.206,0.901
			c0.601,0.601,0.901,1.336,0.901,2.207v7.208H306.759z M304.428,239.25c0-0.518-0.259-0.777-0.776-0.777h-4.661v8.763h4.661
			c0.518,0,0.776-0.259,0.776-0.777V239.25z"/>
		<path style="fill:#FFFFFF;" d="M319.499,254.787c0,0.87-0.301,1.605-0.901,2.206c-0.602,0.601-1.336,0.901-2.206,0.901h-3.885
			c-0.87,0-1.605-0.3-2.206-0.901c-0.602-0.601-0.901-1.336-0.901-2.206V239.25c0-0.87,0.3-1.605,0.901-2.207
			c0.601-0.601,1.336-0.901,2.206-0.901h3.885c0.87,0,1.604,0.3,2.206,0.901c0.601,0.601,0.901,1.336,0.901,2.207V254.787z
			 M317.168,239.25c0-0.518-0.259-0.777-0.776-0.777h-3.885c-0.518,0-0.776,0.259-0.776,0.777v15.537
			c0,0.518,0.259,0.777,0.776,0.777h3.885c0.518,0,0.776-0.259,0.776-0.777V239.25z"/>
		<path style="fill:#FFFFFF;" d="M333.017,245.683c0,0.726-0.208,1.357-0.622,1.896s-0.953,0.901-1.615,1.088l2.206,9.229H330.5
			l-1.988-9.105h-3.263v9.105h-2.331v-21.752h6.992c0.435,0,0.839,0.083,1.212,0.249c0.372,0.166,0.699,0.388,0.979,0.668
			s0.502,0.606,0.668,0.979s0.249,0.777,0.249,1.212v6.431H333.017z M330.686,239.25c0-0.518-0.259-0.777-0.776-0.777h-4.661v7.986
			h4.661c0.518,0,0.776-0.259,0.776-0.777V239.25z"/>
		<path style="fill:#FFFFFF;" d="M345.757,238.474h-3.884v19.421h-2.331v-19.421h-3.884v-2.331h10.099V238.474z"/>
	</g>
</g>
<g>
</g>
<g>
</g>
<g>
</g>
<g>
</g>
<g>
</g>
<g>
</g>
<g>
</g>
<g>
</g>
<g>
</g>
<g>
</g>
<g>
</g>
<g>
</g>
<g>
</g>
<g>
</g>
<g>
</g>
</svg>
