<?xml version="1.0" encoding="iso-8859-1"?>
<!-- Generator: Adobe Illustrator 19.0.0, SVG Export Plug-In . SVG Version: 6.00 Build 0)  -->
<svg version="1.1" id="Layer_1" xmlns="http://www.w3.org/2000/svg" xmlns:xlink="http://www.w3.org/1999/xlink" x="0px" y="0px"
	 viewBox="0 0 512 512" style="enable-background:new 0 0 512 512;" xml:space="preserve">
<path style="fill:#3D51CC;" d="M0,310.924c0,0,4.238,7.944,9.416,17.656c5.179,9.71,21.599,17.656,36.487,17.656h420.193
	c14.89,0,31.309-7.944,36.487-17.656S512,310.924,512,310.924H0z"/>
<path style="fill:#4C7FE1;" d="M402.342,260.484H109.658c-4.661,0-8.44-3.778-8.44-8.44c0-4.662,3.779-8.44,8.44-8.44h292.684
	c4.661,0,8.44,3.778,8.44,8.44C410.782,256.707,407.003,260.484,402.342,260.484z"/>
<path style="fill:#3D51CC;" d="M256,112.406c-10.023,4.49-16.879,13.548-16.879,24.001v113.695h33.758V136.407
	C272.879,125.954,266.023,116.896,256,112.406z"/>
<ellipse style="fill:#5BACF5;" cx="256" cy="305.038" rx="72.051" ry="79.645"/>
<g>
	<circle style="fill:#353185;" cx="399.99" cy="372.915" r="26.679"/>
	<circle style="fill:#353185;" cx="112.01" cy="372.915" r="26.679"/>
</g>
<path style="fill:#FFFFFF;" d="M288.859,289.937h-65.718c-4.661,0-8.44-3.778-8.44-8.44s3.779-8.44,8.44-8.44h65.718
	c4.661,0,8.44,3.778,8.44,8.44S293.52,289.937,288.859,289.937z"/>
<g>
</g>
<g>
</g>
<g>
</g>
<g>
</g>
<g>
</g>
<g>
</g>
<g>
</g>
<g>
</g>
<g>
</g>
<g>
</g>
<g>
</g>
<g>
</g>
<g>
</g>
<g>
</g>
<g>
</g>
</svg>
