<?xml version="1.0" encoding="iso-8859-1"?>
<!-- Generator: Adobe Illustrator 19.0.0, SVG Export Plug-In . SVG Version: 6.00 Build 0)  -->
<svg version="1.1" id="Layer_1" xmlns="http://www.w3.org/2000/svg" xmlns:xlink="http://www.w3.org/1999/xlink" x="0px" y="0px"
	 viewBox="0 0 512 512" style="enable-background:new 0 0 512 512;" xml:space="preserve">
<path style="fill:#DDAC64;" d="M408.654,223.828h-47.418v33.66h47.418c5.198,0,9.428,4.23,9.428,9.43v148.8
	c0,5.199-4.23,9.428-9.428,9.428h-47.418v33.66h47.418c23.758,0,43.088-19.329,43.088-43.088V307.862v-27.918v-13.026
	C451.742,243.158,432.412,223.828,408.654,223.828z"/>
<path style="fill:#E8B674;" d="M408.654,223.828h-47.418v33.66h47.418c5.198,0,9.428,4.23,9.428,9.43v143.895
	c11.002,1.817,22.235,2.943,33.66,3.326V307.862v-27.918v-13.026C451.742,243.158,432.412,223.828,408.654,223.828z"/>
<path style="fill:#F7941C;" d="M353.299,195.568c-7.861,0-15.318-1.703-22.045-4.735c-6.776,21.156-26.589,36.481-49.995,36.481
	c-10.224,0-19.736-2.971-27.806-8.028c-12.615,19.758-34.716,32.87-59.894,32.87c-18.592,0-35.506-7.153-48.166-18.841
	c-8.267,7.623-19.278,12.318-31.412,12.318c-5.907,0-11.535-1.147-16.732-3.16v242.68c0,14.826,12.02,26.846,26.847,26.846h212.529
	c14.828,0,26.846-12.02,26.846-26.846V194.593C360.176,195.227,356.779,195.568,353.299,195.568z"/>
<path style="fill:#ED7626;" d="M119.585,485.154V245.282c-1.838,0.222-3.706,0.351-5.606,0.351c-5.907,0-11.535-1.147-16.732-3.16
	v242.68c0,14.826,12.02,26.846,26.847,26.846h22.338C131.605,512,119.585,499.98,119.585,485.154z"/>
<path style="fill:#F9C33D;" d="M331.254,190.832c-6.776,21.156-26.589,36.481-49.995,36.481c-10.224,0-19.736-2.971-27.806-8.028
	c-8.005,12.537-19.833,22.393-33.839,27.925c25.392,66.968,77.764,120.65,143.856,147.784V194.593
	c-3.294,0.633-6.69,0.974-10.169,0.974C345.438,195.568,337.981,193.863,331.254,190.832z"/>
<g>
	<path style="fill:#DD7B10;" d="M167.654,451.914c-4.626,0-8.377-3.749-8.377-8.377V279.73c0-4.627,3.751-8.377,8.377-8.377
		c4.626,0,8.377,3.749,8.377,8.377v163.807C176.031,448.164,172.28,451.914,167.654,451.914z"/>
	<path style="fill:#DD7B10;" d="M232.519,451.914c-4.627,0-8.377-3.749-8.377-8.377V279.73c0-4.627,3.749-8.377,8.377-8.377
		c4.626,0,8.377,3.749,8.377,8.377v163.807C240.896,448.164,237.146,451.914,232.519,451.914z"/>
	<path style="fill:#DD7B10;" d="M297.383,451.914c-4.626,0-8.377-3.749-8.377-8.377V279.73c0-4.627,3.751-8.377,8.377-8.377
		c4.626,0,8.377,3.749,8.377,8.377v163.807C305.76,448.164,302.009,451.914,297.383,451.914z"/>
</g>
<path style="fill:#EFCA83;" d="M396.453,112.084c-6.914-9.304-16.768-16.295-28.186-19.602c4.471-8.691,7.011-18.545,7.011-28.989
	C375.277,28.425,346.851,0,311.784,0c-20.739,0-39.151,9.946-50.739,25.327C246.864,9.766,226.437,0,203.726,0
	c-38.096,0-69.754,27.485-76.279,63.7c-1.624-0.122-3.26-0.209-4.918-0.209c-34.392,0-62.271,27.878-62.271,62.27
	c0,17.633,7.34,33.541,19.118,44.871c-7.313,8.2-11.796,18.98-11.796,30.834c0,25.626,20.772,46.402,46.398,46.402
	c12.134,0,23.144-4.695,31.412-12.318c12.66,11.688,29.575,18.841,48.166,18.841c25.178,0,47.279-13.112,59.894-32.87
	c8.072,5.056,17.582,8.028,27.806,8.028c23.406,0,43.217-15.325,49.995-36.481c6.727,3.031,14.185,4.735,22.045,4.735
	c29.671,0,53.724-24.053,53.724-53.725c0-1.957-0.104-3.887-0.308-5.79"/>
<path style="fill:#EAB96C;" d="M203.726,0c-38.096,0-69.754,27.485-76.279,63.7c-1.624-0.122-3.26-0.209-4.918-0.209
	c-34.392,0-62.271,27.878-62.271,62.27c0,17.633,7.34,33.541,19.118,44.871c-7.313,8.2-11.796,18.98-11.796,30.834
	c0,25.626,20.772,46.402,46.398,46.402c3.079,0,6.085-0.305,8.993-0.881c-15.667-7.014-26.586-22.73-26.586-41.007
	c0-8.263,2.257-15.982,6.162-22.622h-0.001l0.002-0.002c0.422-0.718,0.86-1.424,1.32-2.117c1.052-2.28,1.876-6.213-1.322-10.865
	c-0.018-0.025-0.027-0.049-0.044-0.074c-8.253-10.31-13.206-23.373-13.206-37.608c0-30.34,22.414-55.433,51.585-59.648l-0.009-0.006
	c0,0,0.016,0,0.041,0.001c1.298-0.188,2.611-0.324,3.934-0.428c3.792-0.789,9.285-3.023,11.806-9.328c0,0,0.007-0.016,0.009-0.023
	c9.633-30.33,38-52.316,71.523-52.316c6.601,0,12.997,0.868,19.095,2.468C234.864,4.96,219.879,0,203.726,0z"/>
<path style="fill:#EDD483;" d="M396.453,112.084c-6.914-9.304-16.768-16.295-28.186-19.602c4.471-8.691,7.011-18.545,7.011-28.989
	C375.277,28.425,346.851,0,311.784,0c-20.739,0-39.151,9.946-50.739,25.327c-4.461-4.895-9.542-9.213-15.115-12.838
	c-27.204,40.97-43.067,90.122-43.067,142.987c0,33.039,6.202,64.627,17.487,93.679c13.685-5.585,25.236-15.318,33.101-27.634
	c8.072,5.056,17.582,8.028,27.806,8.028c23.406,0,43.217-15.325,49.995-36.481c6.727,3.031,14.185,4.735,22.045,4.735
	c29.671,0,53.724-24.053,53.724-53.725c0-1.957-0.104-3.887-0.308-5.79L396.453,112.084z"/>
<g>
</g>
<g>
</g>
<g>
</g>
<g>
</g>
<g>
</g>
<g>
</g>
<g>
</g>
<g>
</g>
<g>
</g>
<g>
</g>
<g>
</g>
<g>
</g>
<g>
</g>
<g>
</g>
<g>
</g>
</svg>
