<?xml version="1.0" encoding="iso-8859-1"?>
<!-- Generator: Adobe Illustrator 19.0.0, SVG Export Plug-In . SVG Version: 6.00 Build 0)  -->
<svg version="1.1" id="Layer_1" xmlns="http://www.w3.org/2000/svg" xmlns:xlink="http://www.w3.org/1999/xlink" x="0px" y="0px"
	 viewBox="0 0 512 512" style="enable-background:new 0 0 512 512;" xml:space="preserve">
<rect x="397.192" y="113.381" style="fill:#FFB819;" width="107.63" height="123.649"/>
<circle style="fill:#0071CE;" cx="456.389" cy="158.894" r="23.128"/>
<rect x="32.92" y="99.918" style="fill:#00B3E3;" width="364.272" height="137.113"/>
<rect x="20.543" y="102.165" style="fill:#333E48;" width="24.753" height="309.405"/>
<rect x="20.543" y="102.165" style="opacity:0.2;enable-background:new    ;" width="24.753" height="36.233"/>
<rect x="201.863" y="102.165" style="fill:#333E48;" width="24.753" height="134.865"/>
<rect x="45.293" y="113.381" style="opacity:0.1;enable-background:new    ;" width="337.885" height="31.208"/>
<rect x="383.189" y="102.165" style="fill:#333E48;" width="24.753" height="309.405"/>
<rect x="383.189" y="102.165" style="opacity:0.2;enable-background:new    ;" width="24.753" height="36.233"/>
<rect x="94.817" y="354.83" style="fill:#A4A9AD;" width="21.402" height="56.74"/>
<rect x="94.817" y="399.528" style="opacity:0.1;enable-background:new    ;" width="21.402" height="12.04"/>
<rect x="312.258" y="354.83" style="fill:#A4A9AD;" width="21.404" height="56.74"/>
<rect x="312.258" y="399.528" style="opacity:0.1;enable-background:new    ;" width="21.401" height="12.04"/>
<path style="fill:#A4A9AD;" d="M348.621,339.371v-53.392c0-10.236-8.378-18.614-18.612-18.614H98.469
	c-10.236,0-18.612,8.378-18.612,18.614v53.392H348.621z"/>
<circle style="opacity:0.2;enable-background:new    ;" cx="214.235" cy="289.97" r="6.05"/>
<circle style="opacity:0.2;enable-background:new    ;" cx="170.507" cy="289.97" r="6.049"/>
<circle style="opacity:0.2;enable-background:new    ;" cx="126.767" cy="289.97" r="6.05"/>
<circle style="opacity:0.2;enable-background:new    ;" cx="257.975" cy="289.97" r="6.049"/>
<circle style="opacity:0.2;enable-background:new    ;" cx="301.703" cy="289.97" r="6.05"/>
<rect x="79.855" y="309.504" style="opacity:0.1;enable-background:new    ;" width="268.761" height="29.868"/>
<path style="fill:#D1D3D3;" d="M348.621,358.45H79.857c-10.536,0-19.076-8.543-19.076-19.078c0-10.535,8.54-19.076,19.076-19.076
	H348.62c10.536,0,19.076,8.541,19.076,19.076C367.696,349.907,359.156,358.45,348.621,358.45z"/>
<path style="fill:#0071CE;" d="M421.296,89.151c0-6.283-5.142-11.426-11.426-11.426H18.609c-6.283,0-11.425,5.143-11.425,11.426
	v12.799c0,6.283,5.142,11.426,11.425,11.426H409.87c6.284,0,11.426-5.143,11.426-11.426L421.296,89.151L421.296,89.151z"/>
<path style="fill:#FFFFFF;" d="M481.237,213.783h-49.722c-4.565,0-8.263-3.699-8.263-8.263s3.699-8.263,8.263-8.263h49.722
	c4.565,0,8.263,3.699,8.263,8.263S485.801,213.783,481.237,213.783z"/>
<path style="fill:#A4A9AD;" d="M512,429.861c0,2.425-1.984,4.414-4.413,4.414H4.413c-2.427,0-4.413-1.989-4.413-4.414v-15.792
	c0-2.427,1.985-4.414,4.413-4.414h503.175c2.428,0,4.413,1.986,4.413,4.414V429.861z"/>
<g>
</g>
<g>
</g>
<g>
</g>
<g>
</g>
<g>
</g>
<g>
</g>
<g>
</g>
<g>
</g>
<g>
</g>
<g>
</g>
<g>
</g>
<g>
</g>
<g>
</g>
<g>
</g>
<g>
</g>
</svg>
