<?xml version="1.0" encoding="iso-8859-1"?>
<!-- Generator: Adobe Illustrator 19.0.0, SVG Export Plug-In . SVG Version: 6.00 Build 0)  -->
<svg version="1.1" id="Layer_1" xmlns="http://www.w3.org/2000/svg" xmlns:xlink="http://www.w3.org/1999/xlink" x="0px" y="0px"
	 viewBox="0 0 512 512" style="enable-background:new 0 0 512 512;" xml:space="preserve">
<g>
	<path style="fill:#E67332;" d="M37.77,235.016V11.87C37.77,5.314,43.085,0,49.641,0l0,0c3.149,0,6.167,1.251,8.393,3.477
		l101.441,101.441L37.77,235.016z"/>
	<path style="fill:#E67332;" d="M474.229,235.016V11.87c0-6.556-5.315-11.87-11.87-11.87l0,0c-3.149,0-6.167,1.251-8.393,3.477
		L352.525,104.918L474.229,235.016z"/>
</g>
<path style="fill:#FF914B;" d="M491.016,276.984C491.016,406.78,385.796,512,256,512S20.984,406.779,20.984,276.984
	S107.662,58.754,256,58.754S491.016,147.187,491.016,276.984z"/>
<path style="fill:#FFFFFF;" d="M309.115,345.328c-21.997-4.719-42.222,4.946-53.115,21.348
	c-10.893-16.402-31.118-26.067-53.115-21.348c-18.884,4.051-34.105,19.356-38.068,38.258c-6.831,32.576,17.841,61.266,49.216,61.266
	c14.021,0,26.694-5.736,35.821-14.984c3.452-3.498,8.839-3.498,12.291,0c9.127,9.247,21.801,14.984,35.822,14.984
	c31.374,0,56.047-28.69,49.216-61.265C343.218,364.685,327.998,349.379,309.115,345.328z"/>
<g>
	<path style="fill:#E67332;" d="M222.257,355.646l23.497,32.896c5.021,7.03,15.469,7.03,20.49,0l23.497-32.896
		c5.952-8.333-0.004-19.908-10.245-19.908h-46.995C222.262,335.738,216.305,347.312,222.257,355.646z"/>
	<path style="fill:#E67332;" d="M306.361,62.483v71.812c0,9.271,7.516,16.787,16.787,16.787s16.787-7.516,16.787-16.787V69.762
		C329.246,66.725,318.061,64.275,306.361,62.483z"/>
	<path style="fill:#E67332;" d="M256,58.754c-5.698,0-11.272,0.175-16.787,0.433v117.075c0,9.271,7.516,16.787,16.787,16.787
		s16.787-7.516,16.787-16.787V59.187C267.272,58.929,261.697,58.754,256,58.754z"/>
	<path style="fill:#E67332;" d="M172.066,69.762v64.533c0,9.271,7.516,16.787,16.787,16.787s16.787-7.516,16.787-16.787V62.483
		C193.938,64.275,182.753,66.725,172.066,69.762z"/>
	<circle style="fill:#E67332;" cx="104.918" cy="352.525" r="33.574"/>
	<circle style="fill:#E67332;" cx="407.082" cy="352.525" r="33.574"/>
</g>
<g>
	<circle style="fill:#464655;" cx="348.328" cy="268.59" r="33.574"/>
	<circle style="fill:#464655;" cx="163.672" cy="268.59" r="33.574"/>
</g>
<g>
</g>
<g>
</g>
<g>
</g>
<g>
</g>
<g>
</g>
<g>
</g>
<g>
</g>
<g>
</g>
<g>
</g>
<g>
</g>
<g>
</g>
<g>
</g>
<g>
</g>
<g>
</g>
<g>
</g>
</svg>
