<?xml version="1.0" encoding="iso-8859-1"?>
<!-- Generator: Adobe Illustrator 19.0.0, SVG Export Plug-In . SVG Version: 6.00 Build 0)  -->
<svg version="1.1" id="Layer_1" xmlns="http://www.w3.org/2000/svg" xmlns:xlink="http://www.w3.org/1999/xlink" x="0px" y="0px"
	 viewBox="0 0 512 512" style="enable-background:new 0 0 512 512;" xml:space="preserve">
<path style="fill:#326E7D;" d="M461.644,205.363c-4.662,0-8.44,3.778-8.44,8.44v56.264h16.879v-56.264
	C470.084,209.14,466.306,205.363,461.644,205.363z"/>
<path style="fill:#4393A8;" d="M50.356,171.604c-4.662,0-8.44,3.778-8.44,8.44v56.264h16.879v-56.264
	C58.796,175.382,55.018,171.604,50.356,171.604z"/>
<path style="fill:#B3EFFF;" d="M400.316,56.264h-33.758V0h33.758c15.54,0,28.132,12.592,28.132,28.132
	S415.857,56.264,400.316,56.264z"/>
<path style="fill:#D9F7FF;" d="M366.558,0H169.635c-15.54,0-28.132,12.592-28.132,28.132H28.976
	c-15.54,0-28.132,12.592-28.132,28.132s12.592,28.132,28.132,28.132h199.736c15.54,0,28.132-12.592,28.132-28.132h109.714
	c15.54,0,28.132-12.592,28.132-28.132S382.098,0,366.558,0z"/>
<polygon style="fill:#E86C16;" points="466.145,421.978 488.651,512 511.156,512 511.156,444.484 "/>
<polygon style="fill:#FFA850;" points="389.626,421.978 412.132,512 488.651,512 488.651,421.978 "/>
<polygon style="fill:#66DEFE;" points="511.156,247.56 488.651,247.56 454.892,346.022 488.651,444.484 511.156,444.484 "/>
<rect x="389.626" y="247.56" style="fill:#8CE6FE;" width="99.024" height="196.923"/>
<path style="fill:#875B51;" d="M461.644,469.802c-4.662,0-8.44,3.778-8.44,8.44V512h16.879v-33.758
	C470.084,473.58,466.306,469.802,461.644,469.802z"/>
<g>
	<path style="fill:#FFFFFF;" d="M461.644,402.286c-4.662,0-8.44-3.778-8.44-8.44v-11.253c0-4.662,3.778-8.44,8.44-8.44
		s8.44,3.778,8.44,8.44v11.253C470.084,398.508,466.306,402.286,461.644,402.286z"/>
	<path style="fill:#FFFFFF;" d="M461.644,357.275c-4.662,0-8.44-3.778-8.44-8.44v-11.253c0-4.662,3.778-8.44,8.44-8.44
		s8.44,3.778,8.44,8.44v11.253C470.084,353.497,466.306,357.275,461.644,357.275z"/>
	<path style="fill:#FFFFFF;" d="M461.644,312.264c-4.662,0-8.44-3.778-8.44-8.44v-11.253c0-4.662,3.778-8.44,8.44-8.44
		s8.44,3.778,8.44,8.44v11.253C470.084,308.486,466.306,312.264,461.644,312.264z"/>
</g>
<polygon style="fill:#705147;" points="412.132,213.802 412.132,512 389.626,512 344.615,365.152 389.626,206.128 "/>
<polygon style="fill:#875B51;" points="389.626,206.128 389.626,512 313.108,512 290.602,202.549 313.108,180.044 "/>
<g>
	<path style="fill:#FFFFFF;" d="M362.62,402.286c-4.662,0-8.44-3.778-8.44-8.44v-11.253c0-4.662,3.778-8.44,8.44-8.44
		c4.662,0,8.44,3.778,8.44,8.44v11.253C371.059,398.508,367.282,402.286,362.62,402.286z"/>
	<path style="fill:#FFFFFF;" d="M362.62,357.275c-4.662,0-8.44-3.778-8.44-8.44v-11.253c0-4.662,3.778-8.44,8.44-8.44
		c4.662,0,8.44,3.778,8.44,8.44v11.253C371.059,353.497,367.282,357.275,362.62,357.275z"/>
	<path style="fill:#FFFFFF;" d="M362.62,312.264c-4.662,0-8.44-3.778-8.44-8.44v-11.253c0-4.662,3.778-8.44,8.44-8.44
		c4.662,0,8.44,3.778,8.44,8.44v11.253C371.059,308.486,367.282,312.264,362.62,312.264z"/>
	<path style="fill:#FFFFFF;" d="M362.62,267.253c-4.662,0-8.44-3.778-8.44-8.44V247.56c0-4.662,3.778-8.44,8.44-8.44
		c4.662,0,8.44,3.778,8.44,8.44v11.253C371.059,263.475,367.282,267.253,362.62,267.253z"/>
</g>
<polygon style="fill:#875B51;" points="0.844,399.473 0.844,512 77.363,512 99.868,376.967 "/>
<polygon style="fill:#705147;" points="77.363,376.967 77.363,512 99.868,512 122.374,376.967 "/>
<polygon style="fill:#8CE6FE;" points="122.374,213.802 77.363,213.802 43.604,306.637 77.363,399.473 122.374,399.473 "/>
<rect x="0.844" y="213.802" style="fill:#B3EFFF;" width="76.519" height="185.67"/>
<path style="fill:#4D392F;" d="M50.356,469.802c-4.662,0-8.44,3.778-8.44,8.44V512h16.879v-33.758
	C58.796,473.58,55.018,469.802,50.356,469.802z"/>
<g>
	<path style="fill:#FFFFFF;" d="M50.356,452.923c-4.662,0-8.44-3.778-8.44-8.44v-11.253c0-4.662,3.778-8.44,8.44-8.44
		s8.44,3.778,8.44,8.44v11.253C58.796,449.146,55.018,452.923,50.356,452.923z"/>
	<path style="fill:#FFFFFF;" d="M50.356,357.275c-4.662,0-8.44-3.778-8.44-8.44v-11.253c0-4.662,3.778-8.44,8.44-8.44
		s8.44,3.778,8.44,8.44v11.253C58.796,353.497,55.018,357.275,50.356,357.275z"/>
	<path style="fill:#FFFFFF;" d="M50.356,312.264c-4.662,0-8.44-3.778-8.44-8.44v-11.253c0-4.662,3.778-8.44,8.44-8.44
		s8.44,3.778,8.44,8.44v11.253C58.796,308.486,55.018,312.264,50.356,312.264z"/>
	<path style="fill:#FFFFFF;" d="M50.356,267.253c-4.662,0-8.44-3.778-8.44-8.44V247.56c0-4.662,3.778-8.44,8.44-8.44
		s8.44,3.778,8.44,8.44v11.253C58.796,263.475,55.018,267.253,50.356,267.253z"/>
</g>
<polygon style="fill:#FFD686;" points="176.387,123.78 142.629,317.89 176.387,512 198.892,512 221.398,123.78 "/>
<rect x="99.868" y="123.78" style="fill:#FFEDC6;" width="76.519" height="388.22"/>
<g>
	<path style="fill:#FFFFFF;" d="M149.38,357.275c-4.662,0-8.44-3.778-8.44-8.44v-11.253c0-4.662,3.778-8.44,8.44-8.44
		c4.662,0,8.44,3.778,8.44,8.44v11.253C157.82,353.497,154.042,357.275,149.38,357.275z"/>
	<path style="fill:#FFFFFF;" d="M149.38,312.264c-4.662,0-8.44-3.778-8.44-8.44v-11.253c0-4.662,3.778-8.44,8.44-8.44
		c4.662,0,8.44,3.778,8.44,8.44v11.253C157.82,308.486,154.042,312.264,149.38,312.264z"/>
	<path style="fill:#FFFFFF;" d="M149.38,267.253c-4.662,0-8.44-3.778-8.44-8.44V247.56c0-4.662,3.778-8.44,8.44-8.44
		c4.662,0,8.44,3.778,8.44,8.44v11.253C157.82,263.475,154.042,267.253,149.38,267.253z"/>
	<path style="fill:#FFFFFF;" d="M149.38,222.242c-4.662,0-8.44-3.778-8.44-8.44v-11.253c0-4.662,3.778-8.44,8.44-8.44
		c4.662,0,8.44,3.778,8.44,8.44v11.253C157.82,218.464,154.042,222.242,149.38,222.242z"/>
	<path style="fill:#FFFFFF;" d="M149.38,177.231c-4.662,0-8.44-3.778-8.44-8.44v-11.253c0-4.662,3.778-8.44,8.44-8.44
		c4.662,0,8.44,3.778,8.44,8.44v11.253C157.82,173.453,154.042,177.231,149.38,177.231z"/>
</g>
<path style="fill:#B3EFFF;" d="M483.024,90.022h-33.758v56.264h33.758c15.54,0,28.132-12.592,28.132-28.132
	S498.564,90.022,483.024,90.022z"/>
<path style="fill:#D9F7FF;" d="M449.266,90.022h-50.637c-15.54,0-28.132,12.592-28.132,28.132s12.592,28.132,28.132,28.132h50.637
	c15.54,0,28.132-12.592,28.132-28.132S464.806,90.022,449.266,90.022z"/>
<path style="fill:#4393A8;" d="M290.602,84.396c0-18.645-15.114-33.758-33.758-33.758l-22.505,129.407l80.457-22.505V84.396H290.602
	z"/>
<path style="fill:#55B9D3;" d="M223.086,84.396h-24.193v73.143l57.952,22.505V50.637C238.199,50.637,223.086,65.751,223.086,84.396z
	"/>
<polygon style="fill:#4393A8;" points="256.844,393.846 198.892,416.352 198.892,450.11 281.037,512 314.796,512 314.796,416.352 
	"/>
<g>
	<rect x="198.892" y="450.11" style="fill:#55B9D3;" width="82.145" height="61.89"/>
	<polygon style="fill:#55B9D3;" points="314.796,157.538 281.037,157.538 258.532,286.945 281.037,416.352 314.796,416.352 	"/>
</g>
<rect x="198.892" y="157.538" style="fill:#66DEFE;" width="82.145" height="258.813"/>
<circle style="fill:#326E7D;" cx="256.844" cy="84.396" r="8.44"/>
<g>
	<path style="fill:#FFFFFF;" d="M256.844,391.033c-4.662,0-8.44-3.778-8.44-8.44v-11.253c0-4.662,3.778-8.44,8.44-8.44
		s8.44,3.778,8.44,8.44v11.253C265.284,387.255,261.506,391.033,256.844,391.033z"/>
	<path style="fill:#FFFFFF;" d="M256.844,346.022c-4.662,0-8.44-3.778-8.44-8.44V326.33c0-4.662,3.778-8.44,8.44-8.44
		s8.44,3.778,8.44,8.44v11.253C265.284,342.244,261.506,346.022,256.844,346.022z"/>
	<path style="fill:#FFFFFF;" d="M256.844,301.011c-4.662,0-8.44-3.778-8.44-8.44v-11.253c0-4.662,3.778-8.44,8.44-8.44
		s8.44,3.778,8.44,8.44v11.253C265.284,297.233,261.506,301.011,256.844,301.011z"/>
	<path style="fill:#FFFFFF;" d="M256.844,256c-4.662,0-8.44-3.778-8.44-8.44v-11.253c0-4.662,3.778-8.44,8.44-8.44
		s8.44,3.778,8.44,8.44v11.253C265.284,252.222,261.506,256,256.844,256z"/>
	<path style="fill:#FFFFFF;" d="M256.844,210.989c-4.662,0-8.44-3.778-8.44-8.44v-11.253c0-4.662,3.778-8.44,8.44-8.44
		s8.44,3.778,8.44,8.44v11.253C265.284,207.211,261.506,210.989,256.844,210.989z"/>
</g>
<path style="fill:#66DEFE;" d="M281.037,132.22h-48.387c-4.662,0-8.44-3.778-8.44-8.44c0-4.662,3.778-8.44,8.44-8.44h48.387
	c4.662,0,8.44,3.778,8.44,8.44C289.477,128.442,285.699,132.22,281.037,132.22z"/>
<path style="fill:#B3EFFF;" d="M317.609,424.791h-121.53c-4.662,0-8.44-3.778-8.44-8.44s3.778-8.44,8.44-8.44h121.53
	c4.662,0,8.44,3.778,8.44,8.44S322.271,424.791,317.609,424.791z"/>
<path style="fill:#326E7D;" d="M256.844,469.802c-4.662,0-8.44,3.778-8.44,8.44V512h16.879v-33.758
	C265.284,473.58,261.506,469.802,256.844,469.802z"/>
<g>
</g>
<g>
</g>
<g>
</g>
<g>
</g>
<g>
</g>
<g>
</g>
<g>
</g>
<g>
</g>
<g>
</g>
<g>
</g>
<g>
</g>
<g>
</g>
<g>
</g>
<g>
</g>
<g>
</g>
</svg>
