<?xml version="1.0" encoding="iso-8859-1"?>
<!-- Generator: Adobe Illustrator 19.0.0, SVG Export Plug-In . SVG Version: 6.00 Build 0)  -->
<svg version="1.1" id="Layer_1" xmlns="http://www.w3.org/2000/svg" xmlns:xlink="http://www.w3.org/1999/xlink" x="0px" y="0px"
	 viewBox="0 0 512 512" style="enable-background:new 0 0 512 512;" xml:space="preserve">
<path style="fill:#DDC98B;" d="M289.067,273.252h-144.17c-31.83-30.127-27.641-89.527,0.424-125.046l-0.445,0.538
	c22.774-26.32,36.591-60.813,36.591-98.583c0-17.597-3.003-34.479-8.511-50.16c52.87,7.515,143.097,41.439,143.037,148.744
	L289.067,273.252z"/>
<path style="fill:#BC9A5E;" d="M289.067,273.252h-83.83c-12.364-31.392-4.978-72.971,16.63-100.392
	c22.55-26.264,36.218-60.582,36.218-98.144c0-16.57-2.665-32.503-7.574-47.4c35.532,22.083,65.516,59.556,65.481,121.427
	L289.067,273.252z"/>
<path style="fill:#234848;" d="M445.916,171.606h-35.321v-26.91H61.19v138.817c0,76.349,61.591,138.817,136.873,138.817h75.658
	c58.427,0,108.603-37.634,128.142-90.179h44.052c36.439,0,66.085-29.99,66.085-66.852v-26.842
	C512,201.594,482.355,171.606,445.916,171.606z M489.866,265.299c0,24.669-19.716,44.74-43.95,44.74H408.06
	c1.656-8.593,2.536-17.46,2.536-26.526v-89.795h35.321c24.234,0,43.95,20.069,43.95,44.739L489.866,265.299L489.866,265.299z"/>
<path style="fill:#415E5C;" d="M240.127,144.696v137.551c0,60.105-38.177,111.598-91.148,130.793
	c-51.22-20.12-87.79-70.698-87.79-129.526V144.696H240.127z"/>
<path style="fill:#234848;" d="M500.637,503.096c0,4.917-4,8.904-8.935,8.904H8.936C4,512,0,508.013,0,503.096
	c0-4.917,4-8.904,8.936-8.904h482.766C496.637,494.191,500.637,498.178,500.637,503.096z"/>
<g>
</g>
<g>
</g>
<g>
</g>
<g>
</g>
<g>
</g>
<g>
</g>
<g>
</g>
<g>
</g>
<g>
</g>
<g>
</g>
<g>
</g>
<g>
</g>
<g>
</g>
<g>
</g>
<g>
</g>
</svg>
