<?xml version="1.0" encoding="iso-8859-1"?>
<!-- Generator: Adobe Illustrator 19.0.0, SVG Export Plug-In . SVG Version: 6.00 Build 0)  -->
<svg version="1.1" id="Layer_1" xmlns="http://www.w3.org/2000/svg" xmlns:xlink="http://www.w3.org/1999/xlink" x="0px" y="0px"
	 viewBox="0 0 512.001 512.001" style="enable-background:new 0 0 512.001 512.001;" xml:space="preserve">
<g>
	<path style="fill:#A06446;" d="M41.29,140.484L0,107.531c0,0,33.032-148.725,181.678-66.144L41.29,140.484z"/>
	<path style="fill:#A06446;" d="M470.711,140.484l41.29-32.953c0,0-33.032-148.725-181.678-66.144L470.711,140.484z"/>
</g>
<path style="fill:#BE7D55;" d="M404.646,446.033H107.355c-54.729,0-99.097-44.368-99.097-99.097V214.807
	c0-100.338,81.34-181.678,181.678-181.678h132.129c100.338,0,181.678,81.34,181.678,181.678v132.129
	C503.743,401.667,459.375,446.033,404.646,446.033z"/>
<g>
	<path style="fill:#FFDEB7;" d="M335.129,33.649c-4.32-0.308-8.667-0.519-13.065-0.519H189.936c-4.398,0-8.745,0.212-13.065,0.519
		c74.242,15.93-3.451,131.81-3.451,197.674h165.162C338.581,165.46,260.888,49.579,335.129,33.649z"/>
	<path style="fill:#FFDEB7;" d="M256.001,322.162H140.387v148.645c0,0,57.807,24.774,74.323,24.774s24.774-8.258,41.29-8.258
		s24.774,8.258,41.29,8.258c16.516,0,74.323-24.774,74.323-24.774V322.162H256.001z"/>
</g>
<path style="fill:#FFEBD2;" d="M396.388,487.323c18.243,0,33.032-14.789,33.032-33.032V371.71c0-95.777-77.642-173.42-173.42-173.42
	l0,0c-95.777,0-173.42,77.642-173.42,173.42v82.581c0,18.243,14.789,33.032,33.032,33.032l0,0c18.243,0,33.032-14.789,33.032-33.032
	v-33.032c0-45.608,36.972-82.581,82.581-82.581h49.548c45.608,0,82.581,36.972,82.581,82.581v33.032
	C363.356,472.534,378.145,487.323,396.388,487.323L396.388,487.323z"/>
<g>
	<circle style="fill:#464655;" cx="128" cy="185.9" r="20.645"/>
	<circle style="fill:#464655;" cx="384.001" cy="185.9" r="20.645"/>
	<path style="fill:#464655;" d="M363.356,454.291v-41.29c0-45.608-36.972-82.581-82.581-82.581l0,0
		c-9.122,0-16.516-7.395-16.516-16.516v-33.032h4.129c15.963,0,28.903-12.94,28.903-28.903l0,0c0-15.963-12.94-28.903-28.903-28.903
		h-24.774c-15.963,0-28.903,12.94-28.903,28.903l0,0c0,15.963,12.94,28.903,28.903,28.903h4.129v33.032
		c0,9.121-7.394,16.516-16.516,16.516l0,0c-45.608,0-82.581,36.972-82.581,82.581v41.29c0,6.561-1.969,12.639-5.267,17.779
		c3.203,1.343,8.755,3.639,15.497,6.308c3.99-7.138,6.285-15.345,6.285-24.087v-33.032c0-36.486,29.578-66.065,66.065-66.065h49.548
		c36.486,0,66.065,29.577,66.065,66.065v33.032c0,8.742,2.296,16.949,6.285,24.087c6.743-2.668,12.295-4.966,15.497-6.308
		C365.324,466.93,363.356,460.852,363.356,454.291z"/>
</g>
<g>
</g>
<g>
</g>
<g>
</g>
<g>
</g>
<g>
</g>
<g>
</g>
<g>
</g>
<g>
</g>
<g>
</g>
<g>
</g>
<g>
</g>
<g>
</g>
<g>
</g>
<g>
</g>
<g>
</g>
</svg>
