<?xml version="1.0" encoding="iso-8859-1"?>
<!-- Generator: Adobe Illustrator 19.0.0, SVG Export Plug-In . SVG Version: 6.00 Build 0)  -->
<svg version="1.1" id="Layer_1" xmlns="http://www.w3.org/2000/svg" xmlns:xlink="http://www.w3.org/1999/xlink" x="0px" y="0px"
	 viewBox="0 0 512 512" style="enable-background:new 0 0 512 512;" xml:space="preserve">
<g>
	<path style="fill:#F7CE4D;" d="M408.711,107.063c-2.022,0-4.044-0.771-5.587-2.315c-81.124-81.124-213.123-81.124-294.249,0
		c-3.086,3.086-8.089,3.086-11.173,0c-3.086-3.086-3.086-8.089,0-11.173c87.287-87.286,229.311-87.286,316.597,0
		c3.086,3.086,3.086,8.089,0,11.173C412.755,106.292,410.732,107.063,408.711,107.063z"/>
	<path style="fill:#F7CE4D;" d="M255.999,43.808c-4.364,0-7.901-3.538-7.901-7.901V7.901c0-4.364,3.538-7.901,7.901-7.901
		s7.901,3.538,7.901,7.901v28.005C263.901,40.27,260.363,43.808,255.999,43.808z"/>
</g>
<path style="fill:#EF5959;" d="M410.443,512h-308.77c0-103.854,24.178-206.286,70.627-299.173l2.434-4.888L144.149,54.992
	c6.848-4.151,13.875-7.891,21.038-11.209c6.89-3.203,13.917-6.026,21.059-8.449c5.51,33.607,34.65,59.238,69.805,59.238
	c35.166,0,64.306-25.632,69.805-59.238c14.549,4.962,28.676,11.504,42.108,19.658l-30.594,152.947l2.444,4.888
	c23.219,46.449,40.876,95.268,52.728,145.478C404.396,408.504,410.443,460.073,410.443,512z"/>
<path style="fill:#DD4B4B;" d="M148.89,512h-47.218c0-103.854,24.178-206.286,70.627-299.173l2.434-4.888L144.149,54.992
	c6.848-4.151,13.875-7.891,21.038-11.209l33.027,169.045C198.215,212.827,130.169,312.604,148.89,512z"/>
<g>
</g>
<g>
</g>
<g>
</g>
<g>
</g>
<g>
</g>
<g>
</g>
<g>
</g>
<g>
</g>
<g>
</g>
<g>
</g>
<g>
</g>
<g>
</g>
<g>
</g>
<g>
</g>
<g>
</g>
</svg>
