<?xml version="1.0" encoding="iso-8859-1"?>
<!-- Generator: Adobe Illustrator 19.0.0, SVG Export Plug-In . SVG Version: 6.00 Build 0)  -->
<svg version="1.1" id="Layer_1" xmlns="http://www.w3.org/2000/svg" xmlns:xlink="http://www.w3.org/1999/xlink" x="0px" y="0px"
	 viewBox="0 0 512 512" style="enable-background:new 0 0 512 512;" xml:space="preserve">
<path style="fill:#FD5219;" d="M202.068,129.598l91.495,29.258l37.612-57.387C248.971,74.919,202.068,129.598,202.068,129.598z"/>
<path style="fill:#FBDA35;" d="M474.034,256.004c23.13-18.336,37.966-46.68,37.966-78.489c0-4.229-0.265-8.396-0.774-12.487
	c-4.111-0.563-8.307-0.861-12.573-0.861c-50.718,0-91.832,41.115-91.832,91.832s41.115,91.832,91.832,91.832
	c4.266,0,8.462-0.298,12.574-0.861c0.508-4.089,0.773-8.253,0.773-12.479C512,302.683,497.164,274.34,474.034,256.004z"/>
<path style="fill:#F7BA35;" d="M474.034,256.004c0,0-65.863-2.162-67.213-0.004c0,50.717,41.115,91.832,91.832,91.832
	c4.266,0,8.462-0.298,12.574-0.861c0.508-4.089,0.773-8.253,0.773-12.479C512,302.683,497.164,274.34,474.034,256.004z"/>
<path style="fill:#FD5219;" d="M293.562,353.145l-91.495,29.258c0,0,46.904,54.679,129.107,28.129L293.562,353.145z"/>
<path style="fill:#F7BA35;" d="M408.171,240.25c-30.041-38.467-141.719-112.865-235.222-112.865C63.836,127.385,0,256,0,256
	s63.836,128.615,172.949,128.615c93.503,0,205.181-74.398,235.222-112.865c-0.885-5.118-1.35-10.379-1.35-15.75
	S407.287,245.368,408.171,240.25z"/>
<path style="fill:#FD9702;" d="M0,256c0,0,63.836,128.615,172.949,128.615c93.503,0,205.181-74.398,235.222-112.865
	c-0.885-5.118-1.35-10.379-1.35-15.75H0z"/>
<path style="fill:#FDE888;" d="M117.486,138.837C42.53,170.336,0,256,0,256s42.53,85.664,117.486,117.163
	c27.25-30.883,43.875-72.01,43.875-117.163S144.736,169.72,117.486,138.837z"/>
<path style="fill:#FBDA35;" d="M0,256c0,0,42.53,85.664,117.486,117.163c27.25-30.883,43.875-72.01,43.875-117.163H0z"/>
<circle style="fill:#666666;" cx="91.42" cy="229.53" r="15"/>
<path style="fill:#FD5219;" d="M264.374,216.947l-54.533,34.927c0,0,39.623,46.191,109.066,23.763L264.374,216.947z"/>
<g>
</g>
<g>
</g>
<g>
</g>
<g>
</g>
<g>
</g>
<g>
</g>
<g>
</g>
<g>
</g>
<g>
</g>
<g>
</g>
<g>
</g>
<g>
</g>
<g>
</g>
<g>
</g>
<g>
</g>
</svg>
