<?xml version="1.0" encoding="iso-8859-1"?>
<!-- Generator: Adobe Illustrator 19.0.0, SVG Export Plug-In . SVG Version: 6.00 Build 0)  -->
<svg version="1.1" id="Layer_1" xmlns="http://www.w3.org/2000/svg" xmlns:xlink="http://www.w3.org/1999/xlink" x="0px" y="0px"
	 viewBox="0 0 512 512" style="enable-background:new 0 0 512 512;" xml:space="preserve">
<g>
	<path style="fill:#326E7D;" d="M33.758,195.235c-4.661,0-8.44-3.778-8.44-8.44v-56.264c0-4.662,3.779-8.44,8.44-8.44h16.879
		c4.661,0,8.44,3.778,8.44,8.44c0,4.662-3.779,8.44-8.44,8.44h-8.44v47.824C42.198,191.458,38.419,195.235,33.758,195.235z"/>
	<path style="fill:#326E7D;" d="M101.275,195.235c-4.661,0-8.44-3.778-8.44-8.44v-56.264c0-4.662,3.779-8.44,8.44-8.44h16.879
		c4.661,0,8.44,3.778,8.44,8.44c0,4.662-3.779,8.44-8.44,8.44h-8.44v47.824C109.714,191.458,105.936,195.235,101.275,195.235z"/>
</g>
<polygon style="fill:#875B51;" points="0,164.29 0,288.07 256,321.829 256,164.29 "/>
<path style="fill:#4B8D8F;" d="M512,256c-9.219,18.983-28.68,32.07-51.2,32.07l-33.758,111.965L460.8,512H512V256z"/>
<path style="fill:#63ABA1;" d="M409.6,256c-9.218,18.982-28.68,32.07-51.2,32.07c-22.52,0-41.982-13.088-51.2-32.07
	c-9.218,18.982-28.68,32.07-51.2,32.07c-22.52,0-41.982-13.088-51.2-32.07c-9.218,18.982-28.68,32.07-51.2,32.07
	s-41.982-13.088-51.2-32.07c-9.218,18.982-28.68,32.07-51.2,32.07S9.219,274.983,0,256v256h460.8V288.07
	C438.28,288.07,418.818,274.982,409.6,256z"/>
<path style="fill:#FE9528;" d="M256,0v101.275c27.966,0,50.637-22.671,50.637-50.637S283.966,0,256,0z"/>
<path style="fill:#FEC14D;" d="M272.879,50.637C272.879,22.671,265.322,0,256,0c-27.966,0-50.637,22.671-50.637,50.637
	s22.671,50.637,50.637,50.637C265.322,101.275,272.879,78.604,272.879,50.637z"/>
<g>
	<path style="fill:#FFFFFF;" d="M162.04,364.026H145.16c-4.661,0-8.44-3.778-8.44-8.44s3.779-8.44,8.44-8.44h16.879
		c4.661,0,8.44,3.778,8.44,8.44S166.7,364.026,162.04,364.026z"/>
	<path style="fill:#FFFFFF;" d="M59.64,397.785H42.76c-4.661,0-8.44-3.778-8.44-8.44s3.779-8.44,8.44-8.44H59.64
		c4.661,0,8.44,3.778,8.44,8.44S64.3,397.785,59.64,397.785z"/>
</g>
<path style="fill:#FFA850;" d="M482.18,366.84h-33.758l-27.075,28.516v33.758c7.466,7.194,16.881,12.378,27.389,14.648
	L482.18,366.84z"/>
<polygon style="fill:#D9F7FF;" points="482.18,333.081 358.4,333.081 358.4,119.56 "/>
<path style="fill:#E86C16;" d="M358.4,111.121c-4.661,0-8.44,3.778-8.44,8.44v268.707h16.879V119.56
	C366.84,114.898,363.061,111.121,358.4,111.121z"/>
<path style="fill:#FECB69;" d="M234.62,366.84l33.444,76.922c17.264-3.729,31.612-15.292,39.136-30.785
	c8.107,16.693,24.135,28.824,43.198,31.508h16.003c19.063-2.684,35.092-14.815,43.198-31.508
	c2.945,6.063,6.946,11.512,11.747,16.138l27.076-62.274H234.62z"/>
<g>
</g>
<g>
</g>
<g>
</g>
<g>
</g>
<g>
</g>
<g>
</g>
<g>
</g>
<g>
</g>
<g>
</g>
<g>
</g>
<g>
</g>
<g>
</g>
<g>
</g>
<g>
</g>
<g>
</g>
</svg>
