<?xml version="1.0" encoding="iso-8859-1"?>
<!-- Generator: Adobe Illustrator 19.0.0, SVG Export Plug-In . SVG Version: 6.00 Build 0)  -->
<svg version="1.1" id="Layer_1" xmlns="http://www.w3.org/2000/svg" xmlns:xlink="http://www.w3.org/1999/xlink" x="0px" y="0px"
	 viewBox="0 0 512 512" style="enable-background:new 0 0 512 512;" xml:space="preserve">
<path style="fill:#C4CAD9;" d="M316.008,121.505c-8.291,0-14.999-6.709-14.999-14.999V15.509c0-8.291,6.709-14.999,14.999-14.999
	s14.999,6.709,14.999,14.999v90.996C331.007,114.796,324.299,121.505,316.008,121.505z"/>
<path style="fill:#50B9FF;" d="M135.015,121.505H45.019c-6.46,0-12.188-4.131-14.223-10.254L0.797,20.255
	C-2.461,10.575,4.764,0.51,15.02,0.51h43.943c15.072,0,29.076,7.485,37.439,20.038l51.092,77.638
	C154.136,108.163,146.951,121.505,135.015,121.505z"/>
<path style="fill:#48A7E6;" d="M31.602,159.794L1.603,219.792c-5,9.968,2.312,21.708,13.417,21.708h41.453
	c17.152,0,32.577-9.536,40.252-24.872l17.812-35.624L31.602,159.794z"/>
<path style="fill:#4596E6;" d="M45.019,91.506c-8.291,0-14.999,6.709-14.999,14.999v59.998c0,7.485,5.522,13.827,12.934,14.853
	l180.993,25.004c0.703,0.103,1.392,0.146,2.08,0.146l120.98-115H45.019z"/>
<path style="fill:#C4CAD9;" d="M473.601,359.996c-7.5,3.6-16.198,0.599-20.098-6.901l-25.799-51.597h-87.396l20.199,38.397
	c3.6,7.2,0.599,16.2-6.901,20.1c-7.2,3.6-17.198,0.599-21.098-6.901l-29.999-59.998c-2.1-4.499-2.1-10.199,0.601-14.398
	c2.999-4.501,7.8-7.2,12.899-7.2h120.995c5.7,0,10.8,3.3,13.499,8.399l29.999,59.998C484.101,347.095,481.1,356.096,473.601,359.996
	z"/>
<path style="fill:#B8BFCC;" d="M473.601,359.996c-7.5,3.6-16.198,0.599-20.098-6.901l-25.799-51.597h-35.699V271.5h44.998
	c5.7,0,10.8,3.3,13.499,8.399l29.999,59.998C484.101,347.095,481.1,356.096,473.601,359.996z"/>
<path style="fill:#A1A7B3;" d="M497.001,361.495H286.009c-8.291,0-14.999-6.709-14.999-14.999c0-8.291,6.709-14.999,14.999-14.999
	h210.991c8.291,0,14.999,6.709,14.999,14.999C512,354.786,505.291,361.495,497.001,361.495z"/>
<path style="fill:#979CA7;" d="M497.001,331.496H392.005v29.999h104.996c8.291,0,14.999-6.709,14.999-14.999
	C512,338.205,505.291,331.496,497.001,331.496z"/>
<path style="fill:#4DA6FF;" d="M512,241.5v14.999c0,24.898-20.098,44.998-44.998,44.998H316.008
	c-57.898,0-104.996-47.098-104.996-104.996V91.506h150.994L512,241.5z"/>
<path style="fill:#4596E6;" d="M512,241.5v14.999c0,24.898-20.098,44.998-44.998,44.998h-74.997V121.505L512,241.5z"/>
<path style="fill:#5C5F66;" d="M512,226.501V241.5h-74.997c-16.799,0-32.7-5.7-44.998-14.999
	c-18.299-13.8-29.999-35.399-29.999-59.998V91.506h14.999c5.099,0,10.201,0.3,14.999,0.899C459.502,99.906,512,156.904,512,226.501z
	"/>
<path style="fill:#53565C;" d="M512,226.501V241.5h-74.997c-16.799,0-32.7-5.7-44.998-14.999V92.406
	C459.502,99.906,512,156.904,512,226.501z"/>
<path style="fill:#6EB825;" d="M203.213,422.393c-11.4-20.699-32.799-30.898-53.198-30.898s-40.798,10.199-52.198,30.898
	c-52.798,6.601-49.198,89.097,7.2,89.097h90.996C252.711,511.489,255.711,428.992,203.213,422.393z"/>
<path style="fill:#88CC2A;" d="M293.209,422.393c-11.4-20.699-31.799-30.898-52.198-30.898s-41.798,10.199-53.198,30.898
	c-52.798,6.601-48.198,89.097,8.2,89.097h89.996C342.707,511.489,345.707,428.992,293.209,422.393z"/>
<path style="fill:#6EB825;" d="M286.009,511.489h-44.998V391.494c20.399,0,40.798,10.199,52.198,30.898
	C345.707,428.992,342.707,511.489,286.009,511.489z"/>
<path style="fill:#A1A7B3;" d="M467.002,60.508H166.014c-8.291,0-14.999-6.709-14.999-14.999s6.709-14.999,14.999-14.999h300.988
	c8.291,0,14.999,6.709,14.999,14.999S475.293,60.508,467.002,60.508z"/>
<g>
	<path style="fill:#E0E4F1;" d="M316.008,181.503h-29.999c-8.291,0-14.999-6.709-14.999-14.999c0-8.291,6.709-14.999,14.999-14.999
		h29.999c8.291,0,14.999,6.709,14.999,14.999C331.007,174.794,324.299,181.503,316.008,181.503z"/>
	<path style="fill:#E0E4F1;" d="M347.007,241.5h-30.999c-8.291,0-14.999-6.709-14.999-14.999c0-8.291,6.709-14.999,14.999-14.999
		h30.999c8.291,0,14.999,6.709,14.999,14.999C362.006,234.791,355.297,241.5,347.007,241.5z"/>
</g>
<path style="fill:#B37447;" d="M497.001,511.489H15.02c-8.291,0-14.999-6.709-14.999-14.999S6.73,481.49,15.02,481.49h481.98
	c8.291,0,14.999,6.709,14.999,14.999S505.291,511.489,497.001,511.489z"/>
<path style="fill:#979CA7;" d="M467.002,30.509h-74.997v29.999h74.997c8.291,0,14.999-6.709,14.999-14.999
	S475.293,30.509,467.002,30.509z"/>
<path style="fill:#995C3D;" d="M497.001,481.49h-255.99v29.999h255.99c8.291,0,14.999-6.709,14.999-14.999
	S505.291,481.49,497.001,481.49z"/>
<g>
</g>
<g>
</g>
<g>
</g>
<g>
</g>
<g>
</g>
<g>
</g>
<g>
</g>
<g>
</g>
<g>
</g>
<g>
</g>
<g>
</g>
<g>
</g>
<g>
</g>
<g>
</g>
<g>
</g>
</svg>
