<?xml version="1.0" encoding="iso-8859-1"?>
<!-- Generator: Adobe Illustrator 19.0.0, SVG Export Plug-In . SVG Version: 6.00 Build 0)  -->
<svg version="1.1" id="Layer_1" xmlns="http://www.w3.org/2000/svg" xmlns:xlink="http://www.w3.org/1999/xlink" x="0px" y="0px"
	 viewBox="0 0 512 512" style="enable-background:new 0 0 512 512;" xml:space="preserve">
<path style="fill:#FE0B37;" d="M112.113,157.108l-0.172,60.82c0.002-0.825-0.021-1.653-0.07-2.482
	c-0.073-1.238-0.109-2.47-0.106-3.694l0.172-60.82c-0.003,1.225,0.031,2.456,0.106,3.694
	C112.092,155.455,112.115,156.283,112.113,157.108z"/>
<g>
	<path style="fill:#FFB657;" d="M509.322,218.63c-7.732-30.417-36.927-63.542-84.965-91.277
		c-91.062-52.574-215.335-65.871-277.57-29.704c-24.871,14.453-36.074,34.617-34.745,56.978c1.167,19.69-12.262,38.683-37.207,52.03
		c-47.147,25.233-74.762,55.666-74.658,84.496c0-0.097-0.005-0.193-0.004-0.29L0,351.683c-0.026,9.045,2.673,17.934,8.349,26.458
		c6.497,9.756,16.456,18.368,29.212,25.734c57.282,33.072,171.112,41.158,282.935,16.355c85.211-18.9,149.139-52.436,176.577-87.991
		l0,0c5.882-6.725,9.896-14.08,12.103-21.883c1.738-5.215,2.635-10.417,2.65-15.568L512,233.965
		c-0.001,0.338-0.016,0.675-0.025,1.013C512.115,229.457,511.255,223.992,509.322,218.63z"/>
	<path style="fill:#FFB657;" d="M509.35,249.533c-2.208,7.804-6.222,15.159-12.103,21.883l-0.172,60.82
		c5.882-6.725,9.896-14.08,12.103-21.883c1.738-5.215,2.635-10.417,2.65-15.568l0.172-60.82
		C511.986,239.116,511.087,244.318,509.35,249.533z"/>
</g>
<path style="fill:#FEC377;" d="M0,351.683l0.172-60.82c-0.026,9.045,2.673,17.934,8.349,26.458
	c6.497,9.756,16.456,18.368,29.212,25.734c57.282,33.072,171.112,41.158,282.935,16.355c85.211-18.9,149.139-52.436,176.577-87.991
	l-0.172,60.82c-27.438,35.555-91.367,69.092-176.577,87.991C208.674,445.03,94.843,436.945,37.561,403.873
	c-12.756-7.364-22.715-15.976-29.212-25.734C2.673,369.616-0.025,360.726,0,351.683z"/>
<path style="fill:#FEDAAA;" d="M424.357,127.354c48.038,27.735,77.233,60.86,84.965,91.277c3.622,10.046,3.51,20.449,0.027,30.903
	c-2.208,7.804-6.222,15.159-12.103,21.883c-27.438,35.555-91.367,69.092-176.577,87.991
	c-111.823,24.803-225.653,16.717-282.935-16.355c-12.756-7.364-22.715-15.976-29.212-25.734
	c-23.712-35.612,4.541-77.601,66.315-110.663c24.944-13.346,38.374-32.34,37.206-52.03c-1.329-22.361,9.874-42.525,34.745-56.978
	C209.023,61.481,333.295,74.779,424.357,127.354z"/>
<path style="fill:#FF5023;" d="M190.544,355.239c-59.992,0-112.289-10.33-143.484-28.34c-10.51-6.068-18.252-12.77-23.013-19.918
	c-5.01-7.524-6.375-14.887-4.295-23.172c4.887-19.466,28.173-41.593,63.886-60.706c31.506-16.857,48.646-42.218,47.025-69.58
	c-0.95-15.991,7.629-29.363,25.498-39.747c20.079-11.668,48.906-17.836,83.366-17.836c58.306,0,123.915,17.782,175.505,47.567
	c41.672,24.06,69.45,53.115,76.213,79.718l0.224,0.878l0.307,0.852c2.134,5.919,2.094,12.03-0.121,18.681l-0.136,0.406l-0.117,0.413
	c-1.473,5.209-4.231,10.147-8.195,14.681l-0.377,0.43l-0.35,0.453c-12.029,15.587-32.869,31.144-60.27,44.989
	c-29.468,14.89-65.977,27.404-105.581,36.187C275.214,350.383,231.613,355.239,190.544,355.239z"/>
<path style="fill:#FEC377;" d="M262.047,142.482l-0.078,27.63c-2.442,0.879-4.975,1.654-7.561,2.325
	c-0.82-0.606-1.713-1.185-2.677-1.739c-13.525-7.807-35.399-7.807-48.847,0c-0.879,0.508-1.693,1.035-2.456,1.582
	c-2.579-0.677-5.099-1.465-7.535-2.351l0.078-27.65c0-0.742,0.072-1.485,0.222-2.227c0.84-4.318,4.11-8.504,9.807-11.819
	c13.447-7.815,35.321-7.815,48.853,0c5.789,3.347,9.117,7.573,9.969,11.937C261.976,140.938,262.047,141.713,262.047,142.482z"/>
<path style="fill:#E0E0E2;" d="M271.543,118.147c24.482,14.134,24.611,37.049,0.288,51.184
	c-24.318,14.132-63.879,14.132-88.361-0.002c-24.478-14.132-24.606-37.047-0.288-51.179
	C207.505,104.015,247.065,104.015,271.543,118.147z M204.263,157.245c12.921,7.461,33.806,7.461,46.639,0.002
	c12.838-7.461,12.77-19.557-0.153-27.018c-12.918-7.458-33.801-7.457-46.639,0.002C191.278,137.691,191.346,149.788,204.263,157.245
	"/>
<path style="fill:#FEDAAA;" d="M271.543,118.147c24.482,14.134,24.611,37.049,0.288,51.184
	c-24.318,14.132-63.879,14.132-88.361-0.002c-24.478-14.132-24.606-37.047-0.288-51.179
	C207.505,104.015,247.065,104.015,271.543,118.147z M204.263,157.245c12.921,7.461,33.806,7.461,46.639,0.002
	c12.838-7.461,12.77-19.557-0.153-27.018c-12.918-7.458-33.801-7.457-46.639,0.002C191.278,137.691,191.346,149.788,204.263,157.245
	"/>
<g>
</g>
<g>
</g>
<g>
</g>
<g>
</g>
<g>
</g>
<g>
</g>
<g>
</g>
<g>
</g>
<g>
</g>
<g>
</g>
<g>
</g>
<g>
</g>
<g>
</g>
<g>
</g>
<g>
</g>
</svg>
