<?xml version="1.0" encoding="iso-8859-1"?>
<!-- Generator: Adobe Illustrator 19.0.0, SVG Export Plug-In . SVG Version: 6.00 Build 0)  -->
<svg version="1.1" id="Layer_1" xmlns="http://www.w3.org/2000/svg" xmlns:xlink="http://www.w3.org/1999/xlink" x="0px" y="0px"
	 viewBox="0 0 512 512" style="enable-background:new 0 0 512 512;" xml:space="preserve">
<path style="fill:#EAC71C;" d="M408.478,326.425c5.784-16.619,8.938-34.472,8.938-53.063c0-89.146-72.267-161.415-161.414-161.415
	c-89.146,0-161.417,72.269-161.417,161.415c0,18.591,3.154,36.443,8.94,53.063H408.478z"/>
<g>
	<path style="fill:#EDE21B;" d="M408.478,326.425c5.784-16.619,8.938-34.472,8.938-53.063c0-89.146-72.267-161.415-161.414-161.415
		c-5.181,0-10.301,0.254-15.355,0.732c-38.613,29.813-63.489,76.554-63.489,129.11c0,30.998,8.667,59.965,23.688,84.636
		L408.478,326.425L408.478,326.425z"/>
	<path style="fill:#EDE21B;" d="M256.002,83.231c-4.768,0-8.635-3.866-8.635-8.635v-49.64c0-4.768,3.866-8.635,8.635-8.635
		c4.768,0,8.635,3.866,8.635,8.635v49.64C264.636,79.365,260.769,83.231,256.002,83.231z"/>
	<path style="fill:#EDE21B;" d="M157.147,109.721c-2.985,0-5.887-1.549-7.486-4.318l-24.82-42.99
		c-2.384-4.129-0.968-9.412,3.161-11.796c4.128-2.381,9.411-0.968,11.796,3.161l24.818,42.99c2.384,4.129,0.969,9.412-3.16,11.796
		C160.095,109.348,158.611,109.721,157.147,109.721z"/>
	<path style="fill:#EDE21B;" d="M84.758,182.094c-1.465,0-2.949-0.373-4.309-1.158l-42.99-24.821
		c-4.129-2.384-5.546-7.665-3.161-11.795c2.385-4.131,7.666-5.544,11.796-3.16l42.99,24.821c4.129,2.384,5.544,7.665,3.16,11.795
		C90.644,180.545,87.743,182.094,84.758,182.094z"/>
	<path style="fill:#EDE21B;" d="M58.275,280.956H8.636c-4.77,0-8.635-3.866-8.635-8.635s3.865-8.635,8.635-8.635h49.639
		c4.768,0,8.635,3.866,8.635,8.635S63.043,280.956,58.275,280.956z"/>
	<path style="fill:#EDE21B;" d="M503.365,280.956h-49.64c-4.77,0-8.635-3.866-8.635-8.635s3.865-8.635,8.635-8.635h49.64
		c4.768,0,8.635,3.866,8.635,8.635S508.134,280.956,503.365,280.956z"/>
	<path style="fill:#EDE21B;" d="M427.244,182.094c-2.985,0-5.887-1.549-7.486-4.318c-2.384-4.129-0.969-9.411,3.16-11.795
		l42.989-24.821c4.129-2.384,9.411-0.969,11.795,3.16c2.384,4.129,0.969,9.411-3.16,11.795l-42.989,24.821
		C430.193,181.721,428.709,182.094,427.244,182.094z"/>
	<path style="fill:#EDE21B;" d="M354.853,109.721c-1.465,0-2.949-0.373-4.309-1.158c-4.129-2.384-5.544-7.665-3.16-11.795
		l24.82-42.99c2.385-4.129,7.666-5.544,11.796-3.16s5.546,7.665,3.161,11.795l-24.822,42.99
		C360.74,108.174,357.839,109.721,354.853,109.721z"/>
</g>
<path style="fill:#EF8229;" d="M360.979,326.425c7.816-15.706,12.219-33.409,12.219-52.145c0-17.486-3.828-34.078-10.697-48.984
	l-17.822-27.644c-21.49-24.847-53.247-40.568-88.678-40.568c-64.725,0-117.197,52.471-117.197,117.196
	c0,18.735,4.404,36.439,12.22,52.145L360.979,326.425L360.979,326.425z"/>
<path style="fill:#F29F26;" d="M360.979,326.425c7.818-15.705,12.219-33.409,12.219-52.145c0-17.486-3.828-34.078-10.697-48.984
	l-17.822-27.644c-21.49-24.847-53.247-40.568-88.678-40.568c-24.254,0-46.787,7.369-65.483,19.987
	c-8.59,19.842-13.362,41.72-13.362,64.717c0,30.994,8.652,59.965,23.668,84.636h160.155V326.425z"/>
<g>
	<path style="fill:#5ABCE2;" d="M473.043,393.636h-29.117c-4.768,0-8.635-3.866-8.635-8.635s3.866-8.635,8.635-8.635h29.117
		c4.768,0,8.635,3.866,8.635,8.635S477.811,393.636,473.043,393.636z"/>
	<path style="fill:#5ABCE2;" d="M415.863,393.636H38.957c-4.768,0-8.635-3.866-8.635-8.635s3.866-8.635,8.635-8.635h376.906
		c4.768,0,8.635,3.866,8.635,8.635S420.631,393.636,415.863,393.636z"/>
	<path style="fill:#5ABCE2;" d="M432.658,444.656H192.439c-4.768,0-8.635-3.866-8.635-8.635s3.866-8.635,8.635-8.635h240.22
		c4.77,0,8.635,3.866,8.635,8.635C441.293,440.79,437.428,444.656,432.658,444.656z"/>
	<path style="fill:#5ABCE2;" d="M163.3,444.656H79.342c-4.77,0-8.635-3.866-8.635-8.635s3.865-8.635,8.635-8.635H163.3
		c4.768,0,8.635,3.866,8.635,8.635C171.935,440.79,168.068,444.656,163.3,444.656z"/>
	<path style="fill:#5ABCE2;" d="M389.117,495.679H291.74c-4.768,0-8.635-3.866-8.635-8.635s3.866-8.635,8.635-8.635h97.377
		c4.768,0,8.635,3.866,8.635,8.635S393.886,495.679,389.117,495.679z"/>
	<path style="fill:#5ABCE2;" d="M261.516,495.679H122.885c-4.768,0-8.635-3.866-8.635-8.635s3.866-8.635,8.635-8.635h138.631
		c4.768,0,8.635,3.866,8.635,8.635S266.284,495.679,261.516,495.679z"/>
	<path style="fill:#5ABCE2;" d="M503.365,342.615H8.635c-4.768,0-8.635-3.866-8.635-8.635s3.866-8.635,8.635-8.635h494.731
		c4.768,0,8.635,3.866,8.635,8.635C512,338.748,508.134,342.615,503.365,342.615z"/>
</g>
<g>
</g>
<g>
</g>
<g>
</g>
<g>
</g>
<g>
</g>
<g>
</g>
<g>
</g>
<g>
</g>
<g>
</g>
<g>
</g>
<g>
</g>
<g>
</g>
<g>
</g>
<g>
</g>
<g>
</g>
</svg>
