<?xml version="1.0" encoding="iso-8859-1"?>
<!-- Generator: Adobe Illustrator 19.0.0, SVG Export Plug-In . SVG Version: 6.00 Build 0)  -->
<svg version="1.1" id="Layer_1" xmlns="http://www.w3.org/2000/svg" xmlns:xlink="http://www.w3.org/1999/xlink" x="0px" y="0px"
	 viewBox="0 0 512 512" style="enable-background:new 0 0 512 512;" xml:space="preserve">
<path style="fill:#87868A;" d="M108.045,223.165c-35.329-12.192-67.545-31.834-84.074-51.26
	C6.571,151.456-1.824,125.454,0.332,98.69c2.156-26.763,14.605-51.085,35.054-68.485S81.836,4.409,108.601,6.566
	c26.762,2.157,51.085,14.606,68.484,35.054c12.228,14.371,23.205,37.114,30.906,64.039L108.045,223.165z"/>
<path style="fill:#D37B93;" d="M118.271,193.533c-29.415-10.151-57.718-27.006-70.427-41.942
	c-11.974-14.072-17.752-31.965-16.268-50.383C33.061,82.791,41.628,66.053,55.7,54.08c14.072-11.974,31.969-17.748,50.383-16.268
	c18.418,1.484,35.156,10.051,47.129,24.123c9.121,10.718,18.332,30.287,24.641,52.346L118.271,193.533z"/>
<path style="fill:#646467;" d="M403.955,223.165c35.329-12.192,67.545-31.834,84.074-51.26c17.4-20.449,25.796-46.451,23.639-73.214
	c-2.156-26.763-14.605-51.085-35.055-68.485c-20.449-17.4-46.449-25.796-73.214-23.639c-26.762,2.157-51.085,14.606-68.484,35.054
	c-12.228,14.371-23.205,37.114-30.906,64.039L403.955,223.165z"/>
<path style="fill:#9D5B6E;" d="M393.729,193.533c29.415-10.151,57.718-27.006,70.427-41.942
	c11.974-14.072,17.751-31.965,16.267-50.383c-1.484-18.417-10.051-35.155-24.123-47.128c-14.072-11.974-31.969-17.748-50.383-16.268
	c-18.418,1.484-35.156,10.051-47.129,24.123c-9.121,10.718-18.332,30.287-24.641,52.346L393.729,193.533z"/>
<path style="fill:#87868A;" d="M255.999,505.766c-23.382,0-46.149-7.167-67.668-21.3c-19.641-12.9-37.352-31.007-52.646-53.818
	c-29.931-44.645-47.099-102.729-47.099-159.358c0-56.42,16.791-104.571,48.561-139.247c30.3-33.073,72.51-51.288,118.852-51.288
	s88.552,18.214,118.852,51.288c31.768,34.676,48.561,82.827,48.561,139.247c0,56.628-17.167,114.713-47.099,159.358
	c-15.294,22.812-33.005,40.918-52.646,53.818C302.148,498.599,279.382,505.766,255.999,505.766z"/>
<path style="fill:#646467;" d="M255.999,505.766V80.755c46.343,0,88.552,18.214,118.852,51.288
	c31.768,34.676,48.561,82.827,48.561,139.247c0,56.628-17.167,114.713-47.099,159.358c-15.294,22.812-33.005,40.918-52.646,53.818
	C302.148,498.599,279.382,505.766,255.999,505.766z"/>
<g>
	
		<rect x="13.478" y="311.253" transform="matrix(-0.9741 -0.2262 0.2262 -0.9741 120.1482 667.6201)" style="fill:#D8D9DD;" width="169.691" height="31.347"/>
	
		<rect x="82.651" y="330.122" transform="matrix(-0.2262 -0.9741 0.9741 -0.2262 -283.6478 604.6072)" style="fill:#D8D9DD;" width="31.347" height="169.691"/>
</g>
<g>
	
		<rect x="398.012" y="242.085" transform="matrix(-0.2262 -0.9741 0.9741 -0.2262 188.8022 803.8434)" style="fill:#A0A1A5;" width="31.347" height="169.691"/>
	
		<rect x="328.834" y="399.297" transform="matrix(-0.9741 -0.2262 0.2262 -0.9741 722.772 912.7587)" style="fill:#A0A1A5;" width="169.691" height="31.347"/>
</g>
<g>
	<path style="fill:#333333;" d="M183.269,220.081c0-11.512,9.228-20.835,20.568-20.835c11.355,0,20.582,9.323,20.582,20.835
		c0,11.51-9.227,20.842-20.582,20.842C192.497,240.922,183.269,231.591,183.269,220.081z"/>
	<path style="fill:#333333;" d="M328.731,220.081c0-11.597-9.288-20.998-20.724-20.998c-11.45,0-20.738,9.401-20.738,20.998
		c0,11.597,9.288,20.998,20.738,20.998C319.443,241.078,328.731,231.677,328.731,220.081z"/>
</g>
<path style="fill:#D37B93;" d="M255.999,413.934c-13.255,0-25.855-4.069-35.477-11.457c-10.502-8.064-16.526-19.559-16.526-31.537
	c0-11.978,6.024-23.473,16.526-31.537c9.622-7.388,22.221-11.457,35.477-11.457c13.255,0,25.854,4.069,35.477,11.457
	c10.502,8.064,16.526,19.559,16.526,31.537c0,11.978-6.024,23.473-16.526,31.537C281.855,409.866,269.256,413.934,255.999,413.934z"
	/>
<path style="fill:#9D5B6E;" d="M255.999,413.934v-85.99c13.255,0,25.854,4.069,35.477,11.457
	c10.502,8.064,16.526,19.559,16.526,31.537s-6.024,23.473-16.526,31.537C281.855,409.866,269.256,413.934,255.999,413.934z"/>
<g>
</g>
<g>
</g>
<g>
</g>
<g>
</g>
<g>
</g>
<g>
</g>
<g>
</g>
<g>
</g>
<g>
</g>
<g>
</g>
<g>
</g>
<g>
</g>
<g>
</g>
<g>
</g>
<g>
</g>
</svg>
