<?xml version="1.0" encoding="iso-8859-1"?>
<!-- Generator: Adobe Illustrator 19.0.0, SVG Export Plug-In . SVG Version: 6.00 Build 0)  -->
<svg version="1.1" id="Layer_1" xmlns="http://www.w3.org/2000/svg" xmlns:xlink="http://www.w3.org/1999/xlink" x="0px" y="0px"
	 viewBox="0 0 512 512" style="enable-background:new 0 0 512 512;" xml:space="preserve">
<g>
	<path style="fill:#DD852F;" d="M174.032,10.858C79.862,4.301,15.474,168.852,10.909,234.423s23.835,131.125,137.875,139.065
		c114.039,7.94,150.57-84.954,155.136-150.524S268.203,17.414,174.032,10.858z"/>
	<path style="fill:#DD852F;" d="M482.092,242.943c-20.174-26.185-93.495-60.755-177.867-26.954
		c-0.051,2.403-0.149,4.737-0.306,6.975c-4.566,65.57-41.096,158.465-155.136,150.524c-4.126-0.287-8.127-0.659-12.031-1.094
		c-11.373,29.213-7.112,55.209,11.25,80.774c43.959,61.199,155.561,71.111,267.272-11.395S507.075,275.37,482.092,242.943z"/>
</g>
<path d="M67.116,194.222c-0.949,0-1.915-0.131-2.873-0.404c-5.545-1.584-8.755-7.363-7.17-12.906
	c0.019-0.065,0.041-0.14,0.063-0.211c1.652-5.439,7.37-8.57,12.857-7.003c5.545,1.584,8.755,7.363,7.17,12.906
	c-0.019,0.065-0.041,0.139-0.063,0.209C75.739,191.304,71.605,194.222,67.116,194.222z"/>
<path d="M79.164,164.342c-1.517,0-3.057-0.332-4.515-1.033c-5.197-2.498-7.384-8.735-4.887-13.933
	c20.904-43.492,58.898-93.647,102.842-103.979c5.614-1.32,11.234,2.16,12.552,7.774c1.321,5.613-2.16,11.233-7.773,12.552
	c-36.821,8.657-70.849,55.347-88.803,92.699C86.785,162.16,83.052,164.342,79.164,164.342z"/>
<path d="M490.363,236.571c-13.143-17.058-40.213-32.287-70.646-39.741c-24.517-6.004-61.805-9.641-105.373,4.41
	c-1.779-31.562-10.643-73.141-28.942-111.002c-12.136-25.109-26.862-45.462-43.767-60.494c-19.952-17.741-42.453-27.599-66.879-29.3
	c-24.678-1.718-48.842,6.767-71.833,25.218C83.924,40.908,66.071,62.661,49.862,90.313C19.156,142.697,2.745,201.36,0.495,233.698
	c-2.788,40.037,6.219,73.16,26.773,98.453c20.867,25.681,53.001,42.084,95.719,48.92c-7.039,27.269-1.583,52.963,16.535,78.186
	c19.12,26.62,50.207,44.511,87.533,50.377c9.097,1.429,18.551,2.139,28.253,2.139c20.604,0,42.32-3.204,64.059-9.525
	c34.577-10.053,68.932-27.575,102.111-52.079c65.749-48.559,84.835-96.501,89.269-128.167
	C517.229,275.696,496.783,244.905,490.363,236.571z M43.472,318.983c-17.104-21.049-24.556-49.254-22.148-83.835
	c4.532-65.08,66.151-214.036,147.364-214.036c1.531,0,3.075,0.053,4.619,0.161c47.53,3.309,76.969,44.27,93.295,78.051
	c21.411,44.3,28.941,93.654,26.904,122.914c-1.686,24.215-15.855,141.297-131.353,141.283c-4.08,0-8.306-0.147-12.643-0.449
	C100.126,359.635,64.451,344.801,43.472,318.983z M490.066,319.108c-5.562,39.727-33.569,79.24-80.994,114.266
	c-50.502,37.298-105.153,57.543-153.707,57.541c-8.562,0-16.944-0.631-25.069-1.907c-31.764-4.992-57.978-19.884-73.814-41.931
	c-14.991-20.87-19.048-41.227-12.526-63.493c1.36,0.113,2.724,0.223,4.103,0.319c4.775,0.332,9.473,0.498,14.09,0.498
	c23.01,0,44.002-4.125,62.557-12.31c19.857-8.759,36.983-22.164,50.902-39.84c29.75-37.782,37.034-84.236,38.727-108.563
	c0.008-0.124,0.014-0.255,0.022-0.379c76.067-27.45,142.038,3.385,159.465,26.005C478.986,256.018,495.42,280.863,490.066,319.108z"
	/>
<path d="M137.931,290.469h-6.003c-5.765,0-10.44-4.674-10.44-10.44c0-5.766,4.675-10.44,10.44-10.44h6.003
	c5.765,0,10.44,4.674,10.44,10.44C148.371,285.795,143.697,290.469,137.931,290.469z"/>
<path d="M204.227,273.673h-6.003c-5.765,0-10.44-4.674-10.44-10.44s4.675-10.44,10.44-10.44h6.003c5.765,0,10.44,4.674,10.44,10.44
	C214.667,268.999,209.993,273.673,204.227,273.673z"/>
<path d="M168.077,339.103h-6.003c-5.765,0-10.44-4.674-10.44-10.44c0-5.766,4.675-10.44,10.44-10.44h6.003
	c5.765,0,10.44,4.674,10.44,10.44C178.517,334.429,173.843,339.103,168.077,339.103z"/>
<path d="M97.083,322.307H91.08c-5.765,0-10.44-4.674-10.44-10.44c0-5.766,4.675-10.44,10.44-10.44h6.003
	c5.765,0,10.44,4.674,10.44,10.44C107.523,317.633,102.849,322.307,97.083,322.307z"/>
<path d="M234.373,322.307h-6.003c-5.765,0-10.44-4.674-10.44-10.44c0-5.766,4.675-10.44,10.44-10.44h6.003
	c5.765,0,10.44,4.674,10.44,10.44C244.813,317.633,240.139,322.307,234.373,322.307z"/>
<path d="M240.639,418.491h-6.003c-5.765,0-10.44-4.674-10.44-10.44s4.675-10.44,10.44-10.44h6.003c5.765,0,10.44,4.674,10.44,10.44
	S246.406,418.491,240.639,418.491z"/>
<path d="M306.935,422.668h-6.003c-5.765,0-10.44-4.674-10.44-10.44c0-5.766,4.675-10.44,10.44-10.44h6.003
	c5.765,0,10.44,4.674,10.44,10.44C317.376,417.993,312.702,422.668,306.935,422.668z"/>
<path d="M270.786,467.125h-6.003c-5.765,0-10.44-4.674-10.44-10.44c0-5.766,4.675-10.44,10.44-10.44h6.003
	c5.765,0,10.44,4.674,10.44,10.44C281.226,462.451,276.552,467.125,270.786,467.125z"/>
<path d="M199.792,450.329h-6.003c-5.765,0-10.44-4.674-10.44-10.44c0-5.766,4.675-10.44,10.44-10.44h6.003
	c5.765,0,10.44,4.674,10.44,10.44C210.232,445.655,205.558,450.329,199.792,450.329z"/>
<path d="M337.082,450.329h-6.003c-5.765,0-10.44-4.674-10.44-10.44c0-5.766,4.675-10.44,10.44-10.44h6.003
	c5.765,0,10.44,4.674,10.44,10.44C347.522,445.655,342.848,450.329,337.082,450.329z"/>
<g>
</g>
<g>
</g>
<g>
</g>
<g>
</g>
<g>
</g>
<g>
</g>
<g>
</g>
<g>
</g>
<g>
</g>
<g>
</g>
<g>
</g>
<g>
</g>
<g>
</g>
<g>
</g>
<g>
</g>
</svg>
