<?xml version="1.0" encoding="iso-8859-1"?>
<!-- Generator: Adobe Illustrator 19.0.0, SVG Export Plug-In . SVG Version: 6.00 Build 0)  -->
<svg version="1.1" id="Layer_1" xmlns="http://www.w3.org/2000/svg" xmlns:xlink="http://www.w3.org/1999/xlink" x="0px" y="0px"
	 viewBox="0 0 512 512" style="enable-background:new 0 0 512 512;" xml:space="preserve">
<path style="fill:#E6EEFF;" d="M480.96,195c0,8.401-6.599,15-15,15h-422c-8.401,0-15-6.599-15-15c0-23.699,11.4-46.5,30.601-60.601
	c9.3-6.599,19.799-11.1,30.899-12.9c6.601-51.599,50.4-91.5,103.5-91.5c21.899,0,43.599,6.899,61,19.2
	c10.201,6.899,18.9,15.899,26.1,26.1C295.46,65.7,313.26,60,330.96,60c38.699,0,72.9,24.901,85.201,60.901
	C453.361,126.301,480.96,157.5,480.96,195z"/>
<path style="fill:#DAE2F2;" d="M480.96,195c0,8.401-6.599,15-15,15h-211V49.2c10.201,6.899,18.9,15.899,26.1,26.1
	c14.4-9.6,32.2-15.3,49.9-15.3c38.699,0,72.9,24.901,85.201,60.901C453.361,126.301,480.96,157.5,480.96,195z"/>
<g>
	<path style="fill:#995C3D;" d="M244.355,205.605c-5.859-5.859-5.859-15.352,0-21.211l181-180c5.859-5.859,15.352-5.859,21.211,0
		s5.859,15.352,0,21.211l-181,180C259.706,211.465,250.215,211.465,244.355,205.605z"/>
	<path style="fill:#995C3D;" d="M315.755,203.716c-4.819-6.738-3.252-16.113,3.486-20.918l168.003-120
		c6.709-4.834,16.113-3.267,20.918,3.486c4.819,6.738,3.252,16.113-3.486,20.918l-168.003,120
		C329.998,211.986,320.608,210.509,315.755,203.716z"/>
</g>
<path style="fill:#EC615B;" d="M315.36,512H194.561c-15.205,0-29.238-7.603-37.544-20.317c-8.335-12.773-9.639-28.74-3.486-42.715
	l12.876-29.648c3.105-7.148,11.177-10.737,18.56-8.232c42.861,14.473,97.127,14.473,139.988,0c7.441-2.52,15.469,1.084,18.56,8.232
	l12.905,29.707c6.123,13.916,4.819,29.883-3.516,42.656C344.598,504.397,330.565,512,315.36,512z"/>
<path style="fill:#D5514A;" d="M315.36,512c15.205,0,29.238-7.603,37.544-20.317c8.335-12.773,9.639-28.74,3.516-42.656
	l-12.905-29.707c-3.091-7.148-11.118-10.752-18.56-8.232c-21.431,7.236-46.212,10.854-69.994,10.854V512H315.36z"/>
<path style="fill:#5C5F66;" d="M254.96,452c-27.627,0-55.067-4.204-79.604-12.495c-72.012-22.954-131.499-81.102-158.892-152.103
	c-2.783-7.222,0.366-15.381,7.295-18.823c3.193-1.597,5.64-3.794,7.72-6.899c19.219-28.418,65.801-28.33,84.902-0.088
	c8.057,11.924,27.1,11.924,35.156,0c19.102-28.242,66.742-28.242,85.844,0c8.057,11.924,27.1,11.924,35.156,0
	c19.102-28.242,66.742-28.242,85.844,0c8.057,11.924,27.1,11.924,35.156,0c19.102-28.242,65.742-28.242,84.844,0
	c2.139,3.193,4.585,5.391,7.778,6.987c6.929,3.442,10.078,11.602,7.295,18.823c-27.393,71.001-86.88,129.148-159.141,152.19
	C310.028,447.796,282.587,452,254.96,452z"/>
<path style="fill:#53565C;" d="M334.315,439.593c72.261-23.042,131.748-81.189,159.141-152.19
	c2.783-7.222-0.366-15.381-7.295-18.823c-3.193-1.597-5.64-3.794-7.778-6.987c-19.102-28.242-65.742-28.242-84.844,0
	c-8.057,11.924-27.1,11.924-35.156,0c-19.102-28.242-66.742-28.242-85.844,0c-4.028,5.962-10.803,8.943-17.578,8.943V452
	C282.587,452,310.028,447.796,334.315,439.593z"/>
<path style="fill:#EC615B;" d="M375.96,300.967c-17.007,0-32.871-8.438-42.422-22.559c-8.057-11.924-28.1-11.924-36.156,0
	c-19.102,28.242-65.742,28.242-84.844,0c-8.057-11.924-28.1-11.924-36.156,0c-19.102,28.242-65.742,28.242-84.844,0
	c-8.057-11.924-27.1-11.924-35.156,0c-4.893,7.354-11.382,13.096-19.233,17.007c-3.765,1.89-8.145,2.095-12.085,0.586
	c-3.926-1.509-7.031-4.614-8.569-8.525c-7.134-18.164-12.158-37.031-14.971-56.089c-1.904-12.729,1.875-25.708,10.386-35.581
	C20.552,185.757,33.121,180,46.363,180h417.195c13.242,0,25.811,5.757,34.453,15.806c8.511,9.873,12.29,22.852,10.386,35.625
	c-2.813,19.043-7.852,37.896-14.971,56.045c-1.538,3.911-4.644,7.017-8.569,8.525c-3.955,1.509-8.306,1.304-12.085-0.586
	c-7.852-3.911-14.341-9.653-19.292-17.095c-7.939-11.748-27.041-11.836-35.098,0.088
	C408.832,292.529,392.967,300.967,375.96,300.967z"/>
<path style="fill:#D5514A;" d="M463.558,180H254.96v119.59c16.436,0,32.871-7.061,42.422-21.182c8.057-11.924,28.1-11.924,36.156,0
	c9.551,14.121,25.415,22.559,42.422,22.559s32.871-8.438,42.422-22.559c8.057-11.924,27.158-11.836,35.098-0.088
	c4.951,7.441,11.44,13.184,19.292,17.095c3.779,1.89,8.13,2.095,12.085,0.586c3.926-1.509,7.031-4.614,8.569-8.525
	c7.119-18.149,12.158-37.002,14.971-56.045c1.904-12.773-1.875-25.752-10.386-35.625C489.369,185.757,476.8,180,463.558,180z"/>
<g>
</g>
<g>
</g>
<g>
</g>
<g>
</g>
<g>
</g>
<g>
</g>
<g>
</g>
<g>
</g>
<g>
</g>
<g>
</g>
<g>
</g>
<g>
</g>
<g>
</g>
<g>
</g>
<g>
</g>
</svg>
