<?xml version="1.0" encoding="iso-8859-1"?>
<!-- Generator: Adobe Illustrator 19.0.0, SVG Export Plug-In . SVG Version: 6.00 Build 0)  -->
<svg version="1.1" id="Layer_1" xmlns="http://www.w3.org/2000/svg" xmlns:xlink="http://www.w3.org/1999/xlink" x="0px" y="0px"
	 viewBox="0 0 512 512" style="enable-background:new 0 0 512 512;" xml:space="preserve">
<path style="fill:#5B4841;" d="M511.795,451.399c-7.748-63.729-21.133-123.529-38.702-172.932
	c-17.658-49.655-36.094-79.468-49.17-96.293V142.76c0-5.384-4.361-9.75-9.742-9.75h-45.785c-5.381,0-9.743,4.366-9.743,9.75v39.415
	c-13.075,16.825-31.511,46.639-49.169,96.293c-17.569,49.403-30.953,109.202-38.701,172.932c-0.968,7.951,1.517,15.936,6.823,21.931
	c5.307,5.996,12.924,9.429,20.928,9.429H484.04c8.004,0,15.623-3.434,20.929-9.429C510.278,467.334,512.762,459.349,511.795,451.399
	z"/>
<path style="opacity:0.1;enable-background:new    ;" d="M311.533,473.33c-5.306-5.996-7.791-13.981-6.823-21.931
	c7.747-63.729,21.132-123.529,38.701-172.932c17.657-49.655,36.093-79.468,49.169-96.293V142.76c0-5.384,4.361-9.75,9.742-9.75
	h-33.924c-5.381,0-9.743,4.366-9.743,9.75v39.415c-13.075,16.825-31.511,46.639-49.169,96.293
	c-17.569,49.403-30.953,109.202-38.701,172.932c-0.968,7.951,1.517,15.936,6.823,21.931c5.307,5.996,12.924,9.429,20.928,9.429
	h33.925C324.459,482.76,316.841,479.327,311.533,473.33z"/>
<path style="fill:#FFEA33;" d="M330.784,303.28c-14.322,44.296-25.348,96.209-32.062,151.336h185.136
	c-6.712-55.126-17.739-107.038-32.063-151.336H330.784z"/>
<path style="opacity:0.1;enable-background:new    ;" d="M330.784,303.28c-14.322,44.296-25.348,96.209-32.062,151.336h33.809
	c6.712-55.127,17.738-107.039,32.062-151.336H330.784z"/>
<g>
	<path style="fill:#E0C924;" d="M413.671,387.351h-44.76c-4.465,0-8.084-3.62-8.084-8.084c0-4.465,3.62-8.084,8.084-8.084h44.76
		c4.465,0,8.084,3.62,8.084,8.084C421.756,383.731,418.136,387.351,413.671,387.351z"/>
	<path style="fill:#E0C924;" d="M413.671,423.959h-44.76c-4.465,0-8.084-3.62-8.084-8.084c0-4.464,3.62-8.084,8.084-8.084h44.76
		c4.465,0,8.084,3.62,8.084,8.084C421.756,420.339,418.136,423.959,413.671,423.959z"/>
</g>
<path style="fill:#FFEA33;" d="M440.501,146.379c0,7.383-5.98,13.367-13.357,13.367h-71.708c-7.377,0-13.357-5.984-13.357-13.367
	l0,0c0-7.382,5.981-13.368,13.357-13.368h71.708C434.521,133.011,440.501,138.997,440.501,146.379L440.501,146.379z"/>
<path style="fill:#8C572C;" d="M241.215,451.399c-7.748-63.729-21.133-123.529-38.701-172.932
	c-17.657-49.655-36.094-79.468-49.169-96.293V142.76c0-5.384-4.362-9.75-9.743-9.75H97.817c-5.38,0-9.743,4.366-9.743,9.75v39.415
	C75,198.999,56.564,228.813,38.906,278.467C21.337,327.87,7.953,387.669,0.205,451.399c-0.968,7.951,1.518,15.936,6.824,21.931
	c5.307,5.996,12.924,9.429,20.928,9.429h185.504c8.005,0,15.623-3.434,20.93-9.429C239.697,467.334,242.182,459.349,241.215,451.399
	z"/>
<path style="opacity:0.1;enable-background:new    ;" d="M40.983,473.33c-5.306-5.996-7.792-13.981-6.824-21.931
	c7.748-63.729,21.132-123.529,38.702-172.932c17.657-49.655,36.094-79.468,49.169-96.293V142.76c0-5.384,4.361-9.75,9.742-9.75
	H97.817c-5.38,0-9.743,4.366-9.743,9.75v39.415C75,198.999,56.564,228.813,38.906,278.467
	C21.337,327.87,7.953,387.669,0.205,451.399c-0.968,7.951,1.518,15.936,6.824,21.931c5.307,5.996,12.924,9.429,20.928,9.429h33.954
	C53.907,482.76,46.289,479.327,40.983,473.33z"/>
<path style="fill:#E23B3B;" d="M60.204,303.28c-14.323,44.296-25.348,96.209-32.062,151.336H213.28
	c-6.713-55.126-17.739-107.038-32.064-151.336H60.204z"/>
<path style="opacity:0.1;enable-background:new    ;" d="M60.204,303.28c-14.323,44.296-25.348,96.209-32.062,151.336h33.837
	c6.712-55.127,17.738-107.039,32.062-151.336H60.204z"/>
<g>
	<path style="fill:#B52C2C;" d="M143.091,387.351H98.329c-4.465,0-8.084-3.62-8.084-8.084c0-4.465,3.62-8.084,8.084-8.084h44.761
		c4.465,0,8.084,3.62,8.084,8.084C151.176,383.731,147.556,387.351,143.091,387.351z"/>
	<path style="fill:#B52C2C;" d="M143.091,423.959H98.329c-4.465,0-8.084-3.62-8.084-8.084c0-4.464,3.62-8.084,8.084-8.084h44.761
		c4.465,0,8.084,3.62,8.084,8.084C151.176,420.339,147.556,423.959,143.091,423.959z"/>
</g>
<path style="fill:#E23B3B;" d="M92.326,135.276c-7.807,0-15.02-4.167-18.922-10.934L50.302,84.297
	c-3.904-6.767-3.904-15.102,0-21.868c3.903-6.767,11.117-10.934,18.921-10.934h102.975c7.805,0,15.018,4.167,18.922,10.934
	c3.903,6.766,3.903,15.101,0,21.868l-23.105,40.046c-3.901,6.767-11.115,10.934-18.921,10.934L92.326,135.276L92.326,135.276z"/>
<path style="opacity:0.1;enable-background:new    ;" d="M95.556,124.342L72.452,84.297c-3.904-6.767-3.904-15.102,0-21.868
	c3.903-6.767,11.117-10.934,18.921-10.934H69.223c-7.805,0-15.019,4.167-18.921,10.934c-3.904,6.766-3.904,15.101,0,21.868
	l23.104,40.046c3.902,6.767,11.115,10.934,18.922,10.934h22.151C106.671,135.276,99.458,131.109,95.556,124.342z"/>
<g>
	<path style="fill:#EF645E;" d="M96.46,51.495v10.013c0,12.186,9.87,22.063,22.045,22.063h4.409
		c12.175,0,22.045-9.877,22.045-22.063V51.495C144.96,51.495,96.46,51.495,96.46,51.495z"/>
	<path style="fill:#EF645E;" d="M169.922,146.379c0,7.383-5.981,13.367-13.357,13.367H84.855c-7.377,0-13.357-5.984-13.357-13.367
		l0,0c0-7.382,5.98-13.368,13.357-13.368h71.708C163.941,133.011,169.922,138.997,169.922,146.379L169.922,146.379z"/>
</g>
<polygon style="fill:#FFEA33;" points="160.355,321.18 120.71,344.087 81.066,321.18 81.066,275.366 120.71,252.458 
	160.355,275.366 "/>
<polygon style="fill:#319E38;" points="430.934,321.18 391.289,344.087 351.645,321.18 351.645,275.366 391.289,252.458 
	430.934,275.366 "/>
<path style="fill:#FFEA92;" d="M451.75,119.301c0,7.772-6.296,14.072-14.061,14.072h-92.798c-7.766,0-14.061-6.3-14.061-14.072
	V43.313c0-7.772,6.296-14.072,14.061-14.072h92.798c7.766,0,14.061,6.3,14.061,14.072V119.301z"/>
<path style="fill:#E0C924;" d="M451.75,57.383h-120.92v16.168h36.209v1.929c0,12.186,9.87,22.063,22.046,22.063h4.409
	c12.175,0,22.045-9.877,22.045-22.063v-1.929h36.21V57.383z"/>
<path style="opacity:0.1;enable-background:new    ;" d="M353.011,119.301V43.313c0-7.772,6.294-14.072,14.06-14.072h-22.18
	c-7.766,0-14.061,6.3-14.061,14.072v75.988c0,7.772,6.296,14.072,14.061,14.072h22.18
	C359.306,133.372,353.011,127.072,353.011,119.301z"/>
<g>
	<path style="fill:#FFFFFF;" d="M396.017,215.61c10.356,4.288,13.833,7.767,18.123,18.123c4.289-10.356,7.767-13.834,18.123-18.123
		c-10.356-4.29-13.833-7.768-18.123-18.124C409.85,207.842,406.373,211.319,396.017,215.61z"/>
	<circle style="fill:#FFFFFF;" cx="436.151" cy="242.783" r="7.996"/>
	<path style="fill:#FFFFFF;" d="M122.939,215.61c10.356,4.288,13.833,7.767,18.123,18.123c4.289-10.356,7.767-13.834,18.123-18.123
		c-10.356-4.29-13.833-7.768-18.123-18.124C136.772,207.842,133.295,211.319,122.939,215.61z"/>
	<circle style="fill:#FFFFFF;" cx="163.078" cy="242.783" r="7.996"/>
</g>
<g>
</g>
<g>
</g>
<g>
</g>
<g>
</g>
<g>
</g>
<g>
</g>
<g>
</g>
<g>
</g>
<g>
</g>
<g>
</g>
<g>
</g>
<g>
</g>
<g>
</g>
<g>
</g>
<g>
</g>
</svg>
