<?xml version="1.0" encoding="iso-8859-1"?>
<!-- Generator: Adobe Illustrator 19.0.0, SVG Export Plug-In . SVG Version: 6.00 Build 0)  -->
<svg version="1.1" id="Capa_1" xmlns="http://www.w3.org/2000/svg" xmlns:xlink="http://www.w3.org/1999/xlink" x="0px" y="0px"
	 viewBox="0 0 512 512" style="enable-background:new 0 0 512 512;" xml:space="preserve">
<path style="fill:#B8B7AC;" d="M122.076,163.284H91.171v-51.509c0-5.69,4.612-10.302,10.302-10.302h10.302
	c5.69,0,10.302,4.612,10.302,10.302V163.284z"/>
<path style="fill:#DBD9C7;" d="M106.624,163.284H91.171v-51.509c0-5.69,4.612-10.302,10.302-10.302h5.151V163.284z"/>
<path style="fill:#B8B7AC;" d="M194.189,163.284h-30.905v-30.905c0-5.69,4.612-10.302,10.302-10.302h10.302
	c5.69,0,10.302,4.612,10.302,10.302V163.284z"/>
<path style="fill:#DBD9C7;" d="M178.736,163.284h-15.453v-30.905c0-5.69,4.612-10.302,10.302-10.302h5.151V163.284z"/>
<path style="fill:#A4A49E;" d="M225.095,307.509h72.113v-61.811c0-5.69-4.612-10.302-10.302-10.302h-61.811V307.509z"/>
<polygon style="fill:#B8B7AC;" points="49.964,204.491 49.964,317.811 235.396,317.811 235.396,204.491 145.771,186.978 "/>
<rect x="49.964" y="163.284" style="fill:#A4A49E;" width="185.433" height="41.207"/>
<path style="fill:#DBD9C7;" d="M235.396,183.887H49.964c-5.69,0-10.302-4.612-10.302-10.302v-10.302
	c0-5.69,4.612-10.302,10.302-10.302h185.433c5.69,0,10.302,4.612,10.302,10.302v10.302
	C245.698,179.275,241.086,183.887,235.396,183.887z"/>
<path style="fill:#B8B7AC;" d="M245.698,173.586v-10.302c0-5.69-4.612-10.302-10.302-10.302H101.473
	c-5.69,0-10.302,4.612-10.302,10.302v10.302c0,5.69,4.612,10.302,10.302,10.302h133.924
	C241.086,183.887,245.698,179.275,245.698,173.586z"/>
<path style="fill:#8D472E;" d="M359.018,235.396c-34.137,0-61.811,27.674-61.811,61.811l61.811,61.811l61.811-61.811
	C420.829,263.07,393.155,235.396,359.018,235.396z"/>
<path style="fill:#AB5034;" d="M366.03,235.803c-2.302-0.26-4.639-0.407-7.011-0.407c-24.65,0-45.924,14.434-55.848,35.307
	c6.452,9.76,17.518,16.202,30.094,16.202c19.913,0,36.056-16.143,36.056-36.056C369.32,245.477,368.136,240.383,366.03,235.803z"/>
<path style="fill:#A4A49E;" d="M503.085,386.367c-12.095-5.816-20.445-18.181-20.445-32.5c0-8.261,2.779-15.872,7.453-21.95
	c0.961-1.25,1.887-2.521,2.792-3.804l-92.66-20.604l51.509,103.018h49.964c5.69,0,10.302-4.612,10.302-10.302v-0.011
	C512,394.25,508.459,388.953,503.085,386.367z"/>
<path style="fill:#DBD9C7;" d="M102.185,320.628l-87.752,7.484c10.104,20.479,25.202,38.468,44.348,52.076l34.652,24.625
	c5.23,3.717,11.487,5.713,17.904,5.713h91.171L102.185,320.628z"/>
<path style="fill:#B8B7AC;" d="M453.121,386.367c-12.095-5.816-20.445-18.181-20.445-32.5c0-8.261,2.779-15.872,7.453-21.95
	c0.961-1.25,1.887-2.521,2.792-3.804c0.95-1.349,1.856-2.722,2.743-4.107L256,307.509l-153.815,13.119
	c1.067,2.528,2.206,5.025,3.419,7.484c10.104,20.479,25.201,38.468,44.348,52.076l34.652,24.625
	c5.23,3.717,11.487,5.713,17.902,5.713h249.228c5.69,0,10.302-4.612,10.302-10.302v-0.011
	C462.036,394.25,458.495,388.953,453.121,386.367z"/>
<path style="fill:#8D472E;" d="M501.698,256h-49.964l-8.813,72.113h49.964C504.977,310.946,512,290.73,512,269.666v-3.365
	C512,260.612,507.388,256,501.698,256z"/>
<path style="fill:#BD7155;" d="M101.473,256H10.302C4.612,256,0,260.612,0,266.302c0,21.751,5.077,42.847,14.433,61.811h91.171
	L101.473,256z"/>
<path style="fill:#AB5034;" d="M451.734,256H431.67c-7.018,0-13.826,2.388-19.307,6.772l-34.578,27.662
	c-5.48,4.384-12.289,6.772-19.307,6.772H237.896c-8.196,0-16.057-3.256-21.853-9.052l-23.103-23.103
	c-5.796-5.796-13.657-9.052-21.853-9.052h-69.613c-5.69,0-10.302,4.612-10.302,10.302c0,21.751,5.076,42.847,14.433,61.811h337.317
	c12.092-17.167,19.115-37.382,19.115-58.446v-3.365C462.036,260.612,457.424,256,451.734,256z"/>
<g>
	<path style="fill:#3E474C;" d="M204.491,232.821h-21.376c-4.267,0-7.726-3.459-7.726-7.726v-10.302
		c0-4.267,3.459-7.726,7.726-7.726h21.376c4.267,0,7.726,3.459,7.726,7.726v10.302C212.217,229.362,208.758,232.821,204.491,232.821
		z"/>
	<path style="fill:#3E474C;" d="M102.245,232.821H80.869c-4.267,0-7.726-3.459-7.726-7.726v-10.302c0-4.267,3.459-7.726,7.726-7.726
		h21.376c4.267,0,7.726,3.459,7.726,7.726v10.302C109.972,229.362,106.512,232.821,102.245,232.821z"/>
	<path style="fill:#3E474C;" d="M152.209,232.821h-19.058c-4.267,0-7.726-3.459-7.726-7.726v-10.302
		c0-4.267,3.459-7.726,7.726-7.726h19.058c4.267,0,7.726,3.459,7.726,7.726v10.302C159.936,229.362,156.476,232.821,152.209,232.821
		z"/>
</g>
<g>
</g>
<g>
</g>
<g>
</g>
<g>
</g>
<g>
</g>
<g>
</g>
<g>
</g>
<g>
</g>
<g>
</g>
<g>
</g>
<g>
</g>
<g>
</g>
<g>
</g>
<g>
</g>
<g>
</g>
</svg>
