<?xml version="1.0" encoding="iso-8859-1"?>
<!-- Generator: Adobe Illustrator 19.0.0, SVG Export Plug-In . SVG Version: 6.00 Build 0)  -->
<svg version="1.1" id="Capa_1" xmlns="http://www.w3.org/2000/svg" xmlns:xlink="http://www.w3.org/1999/xlink" x="0px" y="0px"
	 viewBox="0 0 512 512" style="enable-background:new 0 0 512 512;" xml:space="preserve">
<path style="fill:#E37500;" d="M445.942,349.742h-34.684v-30h34.684c5.813,0,10.724-6.045,10.724-13.201v-57.74
	c0-7.156-4.911-13.201-10.724-13.201h-34.684v-30h34.684c22.456,0,40.724,19.38,40.724,43.201v57.74
	C486.666,330.362,468.398,349.742,445.942,349.742z"/>
<path style="fill:#9D7953;" d="M426.26,162.02v182.63c0,62.63-50.96,113.59-113.59,113.59H197.84
	c-62.63,0-113.59-50.96-113.59-113.59V162.02H426.26z"/>
<rect x="84.25" y="162.02" style="fill:#FF9700;" width="342.01" height="55.98"/>
<path style="fill:#FFD8A6;" d="M489.44,428.24v43.07c0,22.43-18.26,40.69-40.7,40.69H63.26c-22.44,0-40.7-18.26-40.7-40.69v-43.07
	H489.44z"/>
<g>
	<rect x="241.95" style="fill:#C9C9C9;" width="30" height="78.11"/>
	<rect x="183.75" y="39.06" style="fill:#C9C9C9;" width="30" height="78.11"/>
</g>
<rect x="298.75" y="39.06" style="fill:#AAAAAA;" width="30" height="78.11"/>
<rect x="169" y="162.02" style="fill:#FFD8A6;" width="30" height="120.98"/>
<rect x="144.62" y="275.41" style="fill:#FF9700;" width="78.76" height="84.926"/>
<path style="fill:#715539;" d="M426.26,162.02v182.63c0,62.63-50.96,113.59-113.59,113.59h-55.72V162.02H426.26z"/>
<rect x="256.95" style="fill:#AAAAAA;" width="15" height="78.11"/>
<rect x="256.95" y="162.02" style="fill:#E37500;" width="169.31" height="55.98"/>
<path style="fill:#FFC173;" d="M489.44,428.24v43.07c0,22.43-18.26,40.69-40.7,40.69H256.95v-83.76H489.44z"/>
<g>
</g>
<g>
</g>
<g>
</g>
<g>
</g>
<g>
</g>
<g>
</g>
<g>
</g>
<g>
</g>
<g>
</g>
<g>
</g>
<g>
</g>
<g>
</g>
<g>
</g>
<g>
</g>
<g>
</g>
</svg>
