<?xml version="1.0" encoding="iso-8859-1"?>
<!-- Generator: Adobe Illustrator 19.0.0, SVG Export Plug-In . SVG Version: 6.00 Build 0)  -->
<svg version="1.1" id="Layer_1" xmlns="http://www.w3.org/2000/svg" xmlns:xlink="http://www.w3.org/1999/xlink" x="0px" y="0px"
	 viewBox="0 0 512 512" style="enable-background:new 0 0 512 512;" xml:space="preserve">
<path style="fill:#FFA81E;" d="M505.699,214.903l-52.576,30.348L244.406,365.734L121.466,436.7
	c-6.021,3.488-13.733,1.422-17.214-4.593l-38.403-66.374L1.7,254.865c-1.762-3.028-2.11-6.485-1.25-9.615
	c0.84-3.088,2.857-5.85,5.847-7.579L390.53,15.863c6.032-3.478,13.733-1.422,17.214,4.593l102.561,177.242
	C513.789,203.723,511.73,211.414,505.699,214.903z"/>
<path style="fill:#FF9900;" d="M453.122,245.251L244.406,365.734H65.848L1.7,254.865c-1.762-3.028-2.11-6.485-1.25-9.615H453.122z"
	/>
<path style="fill:#DCEFF9;" d="M505.699,214.903l-52.576,30.348L244.406,365.734l-12.084,6.976l-4.035-6.976l-69.719-120.483
	l-41.413-71.58L390.531,15.863c6.032-3.478,13.733-1.422,17.214,4.593l102.561,177.242
	C513.789,203.723,511.73,211.414,505.699,214.903z"/>
<polygon style="fill:#C5E2EF;" points="453.122,245.251 244.406,365.734 228.287,365.734 158.568,245.251 "/>
<path style="fill:#FFA81E;" d="M183.982,217.3c-2.67,0-5.267-1.386-6.698-3.864c-2.134-3.696-0.867-8.422,2.828-10.554l43.15-24.91
	c3.697-2.132,8.422-0.868,10.554,2.828c2.134,3.696,0.867,8.422-2.828,10.554l-43.15,24.91
	C186.62,216.965,185.292,217.3,183.982,217.3z"/>
<path style="fill:#57555C;" d="M247.577,327.205c-2.67,0-5.267-1.386-6.698-3.864c-2.134-3.696-0.867-8.422,2.828-10.554
	L383.5,232.087c3.697-2.131,8.422-0.868,10.554,2.828c2.134,3.696,0.867,8.422-2.828,10.554l-139.794,80.699
	C250.216,326.871,248.888,327.205,247.577,327.205z"/>
<path style="fill:#FFA81E;" d="M194.571,235.601c-2.67,0-5.267-1.386-6.698-3.864c-2.134-3.696-0.867-8.422,2.828-10.554
	l178.359-102.961c3.697-2.132,8.422-0.868,10.554,2.828c2.134,3.696,0.867,8.422-2.828,10.554L198.427,234.565
	C197.21,235.267,195.882,235.601,194.571,235.601z"/>
<g>
	<path style="fill:#57555C;" d="M213.361,268.076c-2.67,0-5.267-1.386-6.698-3.864c-2.134-3.696-0.867-8.422,2.828-10.554
		L387.85,150.696c3.697-2.131,8.422-0.868,10.554,2.828c2.134,3.696,0.867,8.422-2.828,10.554L217.217,267.04
		C216.001,267.742,214.673,268.076,213.361,268.076z"/>
	<path style="fill:#57555C;" d="M411.244,239.923c-2.668,0-5.262-1.383-6.694-3.857l-13.68-23.642
		c-2.138-3.694-0.877-8.421,2.817-10.557c3.694-2.139,8.422-0.877,10.557,2.817l13.68,23.641c2.138,3.694,0.877,8.421-2.817,10.557
		C413.89,239.587,412.558,239.923,411.244,239.923z"/>
	<path style="fill:#57555C;" d="M427.518,230.527c-2.668,0-5.262-1.382-6.694-3.858l-13.679-23.641
		c-2.138-3.693-0.877-8.42,2.818-10.556c3.694-2.138,8.421-0.877,10.556,2.818l13.679,23.641c2.138,3.693,0.877,8.42-2.818,10.556
		C430.162,230.193,428.831,230.527,427.518,230.527z"/>
	<path style="fill:#57555C;" d="M443.793,221.132c-2.668,0-5.262-1.382-6.694-3.858l-13.679-23.64
		c-2.138-3.693-0.877-8.42,2.818-10.556c3.691-2.139,8.421-0.877,10.556,2.818l13.679,23.64c2.138,3.693,0.877,8.42-2.818,10.556
		C446.437,220.797,445.105,221.132,443.793,221.132z"/>
	<path style="fill:#57555C;" d="M460.068,211.738c-2.668,0-5.262-1.382-6.694-3.858l-13.679-23.641
		c-2.138-3.693-0.877-8.42,2.818-10.556c3.694-2.138,8.42-0.877,10.556,2.818l13.679,23.641c2.138,3.693,0.877,8.42-2.818,10.556
		C462.711,211.403,461.38,211.738,460.068,211.738z"/>
	<path style="fill:#57555C;" d="M476.342,202.344c-2.668,0-5.262-1.383-6.694-3.857l-13.68-23.641
		c-2.138-3.694-0.877-8.421,2.817-10.557c3.694-2.139,8.422-0.876,10.557,2.817l13.68,23.641c2.138,3.694,0.877,8.421-2.817,10.557
		C478.987,202.009,477.655,202.344,476.342,202.344z"/>
</g>
<path style="fill:#DCEFF9;" d="M121.909,253.894l-28.972-0.375l-7.026-12.142c-2.136-3.693-6.865-4.957-10.556-2.818
	c-3.694,2.137-4.956,6.863-2.818,10.556l7.022,12.135l-14.132,25.251c-2.083,3.723-0.754,8.432,2.969,10.516
	c1.194,0.668,2.489,0.985,3.766,0.985c2.706,0,5.334-1.425,6.75-3.954l9.649-17.241l5.67,9.798c1.432,2.476,4.026,3.858,6.694,3.858
	c1.312,0,2.644-0.335,3.862-1.04c3.694-2.137,4.956-6.863,2.818-10.556l-5.659-9.779l19.763,0.255
	c0.034,0.001,0.067,0.001,0.102,0.001c4.221,0,7.669-3.393,7.723-7.626C129.59,257.452,126.176,253.95,121.909,253.894z"/>
<g>
	<path style="fill:#FFA81E;" d="M346.063,83.946l1.544-0.891c3.696-2.132,4.962-6.858,2.829-10.553
		c-2.133-3.697-6.86-4.96-10.553-2.829l-16.486,9.516c-3.696,2.132-4.962,6.858-2.829,10.553c1.431,2.48,4.028,3.865,6.698,3.865
		c1.31,0,2.639-0.334,3.855-1.036l1.559-0.899l6.02,10.405c1.432,2.475,4.026,3.857,6.694,3.857c1.312,0,2.644-0.335,3.863-1.04
		c3.693-2.137,4.955-6.863,2.817-10.557L346.063,83.946z"/>
	<path style="fill:#FFA81E;" d="M364.639,64.371c-2.136-3.694-6.865-4.957-10.556-2.818c-3.694,2.137-4.956,6.863-2.818,10.556
		l9.467,16.362c1.432,2.476,4.026,3.858,6.694,3.858c1.312,0,2.644-0.335,3.862-1.04c3.694-2.137,4.956-6.863,2.818-10.556
		L364.639,64.371z"/>
	<path style="fill:#FFA81E;" d="M399.803,59.173l-4.954-1.324l1.323-4.941c1.103-4.123-1.343-8.358-5.465-9.463
		c-4.124-1.101-8.359,1.343-9.463,5.465l-1.326,4.951l-4.963-1.326c-4.124-1.097-8.356,1.35-9.459,5.471
		c-1.101,4.123,1.348,8.357,5.471,9.459l4.954,1.324l-1.323,4.94c-1.103,4.123,1.343,8.358,5.465,9.463
		c0.67,0.179,1.342,0.265,2.004,0.265c3.412,0,6.534-2.278,7.459-5.73l1.326-4.95l4.963,1.326c0.668,0.178,1.339,0.264,1.999,0.264
		c3.413,0,6.536-2.28,7.46-5.734C406.376,64.508,403.926,60.274,399.803,59.173z"/>
</g>
<path style="fill:#49BAEC;" d="M468.252,497.829H25.4c-7.218,0-13.071-5.852-13.071-13.071V281.012
	c0-7.218,5.852-13.071,13.071-13.071h442.852c7.218,0,13.071,5.852,13.071,13.071v203.746
	C481.323,491.976,475.471,497.829,468.252,497.829z"/>
<g>
	<path style="fill:#DCEFF9;" d="M468.252,497.829H152.969V267.941h315.283c7.218,0,13.071,5.852,13.071,13.071v203.746
		C481.323,491.976,475.471,497.829,468.252,497.829z"/>
	<path style="fill:#DCEFF9;" d="M116.889,339.769l-24.89-14.802v-14.016c0-4.268-3.458-7.726-7.726-7.726
		c-4.268,0-7.726,3.458-7.726,7.726v14.016l-24.89,14.803c-3.667,2.181-4.872,6.923-2.691,10.59
		c2.181,3.667,6.924,4.872,10.59,2.691l16.991-10.105v8.064l-9.012,8.85c-3.044,2.99-3.088,7.882-0.1,10.926
		c2.991,3.044,7.882,3.09,10.926,0.1l5.911-5.806l5.911,5.806c1.504,1.477,3.458,2.213,5.414,2.213c2,0,4-0.773,5.514-2.313
		c2.989-3.044,2.944-7.937-0.1-10.926l-9.012-8.85v-8.065l16.993,10.105c1.237,0.737,2.597,1.087,3.941,1.087
		c2.635,0,5.203-1.35,6.648-3.779C121.762,346.692,120.556,341.951,116.889,339.769z"/>
	<path style="fill:#DCEFF9;" d="M89.27,396.138c-3.016-3.012-7.904-3.012-10.92,0l-22.146,22.119
		c-3.019,3.015-3.023,7.908-0.007,10.926c1.509,1.511,3.488,2.266,5.467,2.266c1.976,0,3.952-0.753,5.46-2.259l16.686-16.665
		l16.078,16.06c3.018,3.014,7.911,3.013,10.926-0.007c3.015-3.019,3.012-7.911-0.007-10.926L89.27,396.138z"/>
	<path style="fill:#DCEFF9;" d="M97.011,434.153H70.001c-4.268,0-7.726,3.458-7.726,7.726c0,4.268,3.458,7.726,7.726,7.726h27.009
		c4.268,0,7.726-3.458,7.726-7.726C104.737,437.612,101.279,434.153,97.011,434.153z"/>
	<path style="fill:#DCEFF9;" d="M97.011,451.631H70.001c-4.268,0-7.726,3.458-7.726,7.726c0,4.268,3.458,7.726,7.726,7.726h27.009
		c4.268,0,7.726-3.458,7.726-7.726C104.737,455.09,101.279,451.631,97.011,451.631z"/>
</g>
<path style="fill:#49BAEC;" d="M192.837,340.144h49.838c4.268,0,7.726-3.458,7.726-7.726c0-4.268-3.458-7.726-7.726-7.726h-49.838
	c-4.268,0-7.726,3.458-7.726,7.726C185.111,336.686,188.569,340.144,192.837,340.144z"/>
<path style="fill:#57555C;" d="M354.3,451.631H192.837c-4.268,0-7.726,3.458-7.726,7.726c0,4.268,3.458,7.726,7.726,7.726H354.3
	c4.268,0,7.726-3.458,7.726-7.726C362.026,455.09,358.568,451.631,354.3,451.631z"/>
<path style="fill:#49BAEC;" d="M398.841,345.83H192.837c-4.268,0-7.726,3.458-7.726,7.726c0,4.268,3.458,7.726,7.726,7.726h206.005
	c4.268,0,7.726-3.458,7.726-7.726C406.568,349.288,403.109,345.83,398.841,345.83z"/>
<g>
	<path style="fill:#57555C;" d="M398.841,383.337H192.837c-4.268,0-7.726,3.458-7.726,7.726c0,4.268,3.458,7.726,7.726,7.726
		h206.005c4.268,0,7.726-3.458,7.726-7.726C406.568,386.796,403.109,383.337,398.841,383.337z"/>
	<path style="fill:#57555C;" d="M378.267,430.559c-4.268,0-7.726,3.458-7.726,7.726v27.305c0,4.268,3.458,7.726,7.726,7.726
		c4.268,0,7.726-3.458,7.726-7.726v-27.305C385.993,434.018,382.534,430.559,378.267,430.559z"/>
	<path style="fill:#57555C;" d="M397.065,430.559c-4.268,0-7.726,3.458-7.726,7.726v27.305c0,4.268,3.458,7.726,7.726,7.726
		c4.268,0,7.726-3.458,7.726-7.726v-27.305C404.791,434.018,401.332,430.559,397.065,430.559z"/>
	<path style="fill:#57555C;" d="M415.861,430.559c-4.268,0-7.726,3.458-7.726,7.726v27.305c0,4.268,3.458,7.726,7.726,7.726
		c4.268,0,7.726-3.458,7.726-7.726v-27.305C423.588,434.018,420.128,430.559,415.861,430.559z"/>
	<path style="fill:#57555C;" d="M434.658,430.559c-4.268,0-7.726,3.458-7.726,7.726v27.305c0,4.268,3.458,7.726,7.726,7.726
		s7.726-3.458,7.726-7.726v-27.305C442.385,434.018,438.925,430.559,434.658,430.559z"/>
	<path style="fill:#57555C;" d="M453.455,430.559c-4.268,0-7.726,3.458-7.726,7.726v27.305c0,4.268,3.458,7.726,7.726,7.726
		s7.726-3.458,7.726-7.726v-27.305C461.181,434.018,457.723,430.559,453.455,430.559z"/>
</g>
<g>
	<path style="fill:#49BAEC;" d="M378.861,304.665h1.794v12.006c0,4.268,3.458,7.726,7.726,7.726c4.268,0,7.726-3.458,7.726-7.726
		v-12.006h1.794c4.268,0,7.726-3.458,7.726-7.726s-3.458-7.726-7.726-7.726h-19.04c-4.268,0-7.726,3.458-7.726,7.726
		S374.593,304.665,378.861,304.665z"/>
	<path style="fill:#49BAEC;" d="M414.272,323.631c4.268,0,7.726-3.458,7.726-7.726v-18.898c0-4.268-3.458-7.726-7.726-7.726
		c-4.268,0-7.726,3.458-7.726,7.726v18.898C406.546,320.173,410.004,323.631,414.272,323.631z"/>
	<path style="fill:#49BAEC;" d="M455.05,320.999c3.015-3.019,3.012-7.911-0.007-10.926l-3.62-3.616l3.62-3.616
		c3.019-3.016,3.023-7.908,0.007-10.926c-3.016-3.021-7.909-3.022-10.926-0.007l-3.633,3.629l-3.633-3.629
		c-3.018-3.014-7.911-3.013-10.926,0.007c-3.015,3.019-3.012,7.911,0.007,10.926l3.62,3.616l-3.62,3.616
		c-3.019,3.016-3.023,7.908-0.007,10.926c1.509,1.511,3.488,2.266,5.467,2.266c1.976,0,3.952-0.753,5.46-2.259l3.633-3.629
		l3.633,3.629c1.508,1.506,3.484,2.259,5.46,2.259C451.561,323.265,453.54,322.51,455.05,320.999z"/>
</g>
<g>
</g>
<g>
</g>
<g>
</g>
<g>
</g>
<g>
</g>
<g>
</g>
<g>
</g>
<g>
</g>
<g>
</g>
<g>
</g>
<g>
</g>
<g>
</g>
<g>
</g>
<g>
</g>
<g>
</g>
</svg>
