<?xml version="1.0" encoding="iso-8859-1"?>
<!-- Generator: Adobe Illustrator 19.0.0, SVG Export Plug-In . SVG Version: 6.00 Build 0)  -->
<svg version="1.1" id="Layer_1" xmlns="http://www.w3.org/2000/svg" xmlns:xlink="http://www.w3.org/1999/xlink" x="0px" y="0px"
	 viewBox="0 0 511.999 511.999" style="enable-background:new 0 0 511.999 511.999;" xml:space="preserve">
<g>
	<rect x="106.734" y="460.666" style="fill:#E42105;" width="298.528" height="16.648"/>
	<rect x="73.438" y="495.349" style="fill:#E42105;" width="365.119" height="16.648"/>
</g>
<g>
	<path style="fill:#961300;" d="M154.878,410.467l-87.321,87.322c-3.251,3.252-3.251,8.521,0,11.772
		c1.625,1.625,3.756,2.437,5.886,2.437c2.13,0,4.261-0.812,5.886-2.437l87.321-87.322L154.878,410.467z"/>
	<path style="fill:#961300;" d="M444.442,497.789l-87.322-87.322l-11.771,11.772l87.322,87.322c1.625,1.625,3.756,2.437,5.886,2.437
		c2.13,0,4.261-0.812,5.886-2.437C447.692,506.311,447.692,501.041,444.442,497.789z"/>
</g>
<path style="fill:#353185;" d="M76.248,382.971c-1.544,30.482,22.166,55.422,52.687,55.422h254.128
	c30.521,0,54.23-24.939,52.687-55.422L256,371.872L76.248,382.971z"/>
<path style="fill:#4C7FE1;" d="M419.165,55.422C417.621,24.939,391.387,0,360.867,0H151.132c-30.521,0-56.756,24.939-58.298,55.422
	L76.248,382.971h359.501L419.165,55.422z"/>
<path style="fill:#353185;" d="M322.59,47.192H189.408c-4.598,0-8.324-3.727-8.324-8.324s3.726-8.324,8.324-8.324H322.59
	c4.598,0,8.324,3.727,8.324,8.324S327.188,47.192,322.59,47.192z"/>
<polygon style="fill:#3D51CC;" points="123.561,216.582 118.818,310.265 393.181,310.265 388.438,216.582 255.999,194.385 "/>
<polygon style="fill:#0E0A57;" points="381.408,77.735 130.591,77.736 123.561,216.582 388.438,216.582 "/>
<g>
	<path style="fill:#FFD117;" d="M146.964,260.976h-25.65l-2.496,49.288h77.434C196.252,283.043,174.185,260.976,146.964,260.976z"/>
	<path style="fill:#FFD117;" d="M390.685,260.976h-25.65c-27.221,0-49.288,22.067-49.288,49.288h77.434L390.685,260.976z"/>
</g>
<g>
</g>
<g>
</g>
<g>
</g>
<g>
</g>
<g>
</g>
<g>
</g>
<g>
</g>
<g>
</g>
<g>
</g>
<g>
</g>
<g>
</g>
<g>
</g>
<g>
</g>
<g>
</g>
<g>
</g>
</svg>
